<svg width="32" height="30" viewBox="0 0 32 30" fill="none" xmlns="http://www.w3.org/2000/svg">
<path d="M11.1805 14.5757C14.9293 14.5757 17.9683 11.5367 17.9683 7.78787C17.9683 4.03903 14.9293 1 11.1805 1C7.43161 1 4.39258 4.03903 4.39258 7.78787C4.39258 11.5367 7.43161 14.5757 11.1805 14.5757Z" stroke="#376FE3" stroke-width="1.2" stroke-linecap="round" stroke-linejoin="round"/>
<path d="M1 29.0001V25.6061C1 23.8059 1.71515 22.0793 2.98812 20.8064C4.26109 19.5334 5.98762 18.8182 7.78787 18.8182H14.5757C16.376 18.8182 18.1025 19.5334 19.3755 20.8064C20.6485 22.0793 21.3636 23.8059 21.3636 25.6061V29.0001M20.5151 14.5758L23.9091 17.9698L30.6969 11.1819" stroke="#376FE3" stroke-width="1.2" stroke-linecap="round" stroke-linejoin="round"/>
</svg>
