<svg width="105" height="38" viewBox="0 0 105 38" fill="none" xmlns="http://www.w3.org/2000/svg">
<path d="M67.0774 0.343269C65.4018 0.811314 63.9883 2.32778 63.6325 4.03146C63.2487 5.90364 64.0631 7.88815 65.6639 8.95529C66.5625 9.55439 67.3114 9.77905 68.3504 9.77905C72.0293 9.76969 74.3133 5.95981 72.5909 2.72094C72.0012 1.61635 70.9808 0.755149 69.8295 0.399434C69.118 0.184134 67.7701 0.156052 67.0774 0.343269Z" fill="#E6EDFB"/>
<path d="M22.7633 11.4544C17.1936 12.1564 13.9266 14.506 12.5131 18.8308C11.1277 23.09 11.5677 28.7159 13.5615 31.9454C15.3775 34.8941 18.5509 36.5509 23.2781 37.0096C25.9834 37.2624 31.8714 36.8318 32.3676 36.3356C32.4986 36.2046 32.5267 35.9706 32.5267 34.7349C32.5267 33.9392 32.4893 33.2278 32.4518 33.1623C32.3863 33.0593 32.2178 33.0593 31.497 33.1529C31.0196 33.2185 29.6997 33.2933 28.567 33.3214C26.1519 33.3776 25.5622 33.284 24.3172 32.6942C23.6994 32.3947 23.3811 32.1607 22.8101 31.5897C21.7242 30.5038 21.1345 29.2682 20.6384 27.0683C20.4511 26.2259 20.4231 25.8514 20.4231 24.2226C20.4324 22.5658 20.4605 22.2194 20.6758 21.2271C21.4434 17.67 22.9599 15.8727 25.712 15.2362C26.62 15.0209 29.1381 15.0302 31.0196 15.2362C31.7685 15.3204 32.3956 15.3672 32.4237 15.3391C32.4986 15.2736 32.4893 12.1096 32.4144 12.0347C32.3395 11.9505 30.3831 11.6603 28.8291 11.4918C27.3782 11.342 23.8679 11.314 22.7633 11.4544Z" fill="#E6EDFB"/>
<path d="M0.156109 11.7168C0.0905827 11.8385 0.0625 15.9199 0.0625 24.2604C0.0625 35.3624 0.0812218 36.6262 0.212274 36.7572C0.343327 36.8883 0.839454 36.907 4.31235 36.907C7.26103 36.907 8.29073 36.8789 8.37498 36.7947C8.53411 36.6355 8.53411 11.8104 8.37498 11.6513C8.29073 11.567 7.25167 11.539 4.25618 11.539C0.399492 11.539 0.249718 11.5483 0.156109 11.7168Z" fill="#E6EDFB"/>
<path d="M42.8137 11.6981C42.7388 11.7917 41.316 15.639 39.6591 20.2446C37.9928 24.8501 36.1768 29.905 35.6152 31.4777C34.3889 34.8944 33.7617 36.6917 33.7617 36.8134C33.7617 36.8695 34.5293 36.907 35.8211 36.907C37.8431 36.907 37.8899 36.8976 38.0958 36.6917C38.2269 36.5606 38.62 35.6058 39.1349 34.1455C39.5936 32.8537 40.0054 31.7491 40.0522 31.6836C40.1271 31.5994 41.1381 31.5713 44.5361 31.5713H48.9264L49.0574 31.7772C49.1323 31.8989 49.5816 33.0409 50.059 34.314C50.5364 35.5965 50.9764 36.701 51.0513 36.7759C51.1636 36.8883 51.8938 36.907 55.4603 36.907C57.8099 36.907 59.7944 36.8695 59.8693 36.8227C60.0097 36.7291 60.356 37.6839 52.9516 17.8108C51.8095 14.7497 50.836 12.1287 50.7798 11.9789C50.7237 11.8385 50.6113 11.6794 50.5177 11.6326C50.4148 11.5764 48.8796 11.539 46.6517 11.539C43.263 11.539 42.9541 11.5483 42.8137 11.6981ZM47.4286 27.3308C47.4286 27.3495 46.1275 27.3589 44.5267 27.3589C42.9354 27.3589 41.6249 27.3308 41.6249 27.284C41.6249 27.2372 43.9838 20.5909 44.3957 19.4957C44.4331 19.3927 47.4193 27.1248 47.4286 27.3308Z" fill="#E6EDFB"/>
<path d="M57.2577 11.7168C57.2015 11.8291 57.1641 12.681 57.1641 13.823V15.7514H60.4965C62.6121 15.7514 63.8852 15.7888 64.0069 15.845C64.1847 15.9386 64.1847 16.1539 64.1847 26.2824C64.1847 35.5497 64.2035 36.6262 64.3345 36.7572C64.4562 36.8883 64.9523 36.907 68.3597 36.907C72.1134 36.907 72.2445 36.8976 72.4223 36.7198C72.6095 36.5325 72.6095 36.4109 72.6095 26.2543C72.6095 18.3818 72.6376 15.9479 72.7219 15.8637C72.8061 15.7794 73.6767 15.7514 76.0824 15.7514C78.5631 15.7514 79.3494 15.7233 79.4243 15.6297C79.4804 15.5641 79.5179 14.7778 79.5179 13.6452C79.5179 12.5125 79.4804 11.7262 79.4243 11.6513C79.3494 11.567 77.0185 11.539 68.341 11.539C57.5759 11.539 57.3513 11.539 57.2577 11.7168Z" fill="#E6EDFB"/>
<path d="M81.7841 11.6324C81.6624 11.7073 81.6437 12.6434 81.6156 18.9058C81.5781 28.2948 81.6811 30.0078 82.3551 31.777C83.1227 33.7615 84.8357 35.4746 86.8202 36.2328C88.8235 37.0098 92.0062 37.4029 94.5617 37.197C97.0236 37.0004 98.5869 36.6447 99.9442 35.9894C100.684 35.6337 100.974 35.4184 101.639 34.7538C103.061 33.3403 103.81 31.6272 104.063 29.2215C104.203 27.7986 104.194 11.8009 104.044 11.6511C103.96 11.5668 103.398 11.5388 102.088 11.5388C100.534 11.5388 100.216 11.5575 100.094 11.6885C99.9629 11.8196 99.9442 12.6995 99.9442 19.9917C99.9442 24.9155 99.9068 28.4165 99.8506 28.8096C99.5698 30.7754 98.9613 31.8987 97.8287 32.5633C97.2389 32.9097 96.1062 33.1624 95.1327 33.1624C92.521 33.1531 91.1637 32.1889 90.5365 29.8861C90.3774 29.3338 90.3587 28.4633 90.2744 20.4784C90.2089 14.1785 90.1527 11.6605 90.0778 11.6137C89.9187 11.5107 81.9526 11.5294 81.7841 11.6324Z" fill="#E6EDFB"/>
</svg>
