<svg width="29" height="29" viewBox="0 0 29 29" fill="none" xmlns="http://www.w3.org/2000/svg">
<path d="M14.6729 3.47194C18.3598 3.47194 18.7964 3.48811 20.2464 3.55279C21.5939 3.61208 22.3216 3.83847 22.8067 4.02713C23.4481 4.27508 23.9117 4.57693 24.3914 5.05665C24.8765 5.54177 25.173 5.99994 25.421 6.64137C25.6096 7.12649 25.836 7.85955 25.8953 9.20171C25.96 10.6571 25.9761 11.0937 25.9761 14.7752C25.9761 18.4621 25.96 18.8987 25.8953 20.3486C25.836 21.6962 25.6096 22.4239 25.421 22.909C25.173 23.5504 24.8712 24.014 24.3914 24.4937C23.9063 24.9788 23.4481 25.2753 22.8067 25.5232C22.3216 25.7119 21.5885 25.9383 20.2464 25.9975C18.791 26.0622 18.3544 26.0784 14.6729 26.0784C10.986 26.0784 10.5494 26.0622 9.09946 25.9975C7.75191 25.9383 7.02423 25.7119 6.53911 25.5232C5.89768 25.2753 5.43413 24.9734 4.9544 24.4937C4.46928 24.0086 4.17282 23.5504 3.92487 22.909C3.73622 22.4239 3.50983 21.6908 3.45054 20.3486C3.38585 18.8933 3.36968 18.4567 3.36968 14.7752C3.36968 11.0883 3.38585 10.6517 3.45054 9.20171C3.50983 7.85416 3.73622 7.12649 3.92487 6.64137C4.17282 5.99994 4.47467 5.53638 4.9544 5.05665C5.43952 4.57154 5.89768 4.27508 6.53911 4.02713C7.02423 3.83847 7.7573 3.61208 9.09946 3.55279C10.5494 3.48811 10.986 3.47194 14.6729 3.47194ZM14.6729 0.987061C10.9267 0.987061 10.4578 1.00323 8.98626 1.06791C7.52013 1.1326 6.51216 1.36976 5.63895 1.70935C4.72801 2.0651 3.95721 2.53405 3.19181 3.30484C2.42101 4.07025 1.95206 4.84105 1.59631 5.7466C1.25673 6.6252 1.01956 7.62778 0.954876 9.09391C0.890194 10.5708 0.874023 11.0398 0.874023 14.786C0.874023 18.5321 0.890194 19.0011 0.954876 20.4726C1.01956 21.9387 1.25673 22.9467 1.59631 23.8199C1.95206 24.7309 2.42101 25.5017 3.19181 26.2671C3.95721 27.0325 4.72801 27.5068 5.63356 27.8572C6.51216 28.1967 7.51474 28.4339 8.98087 28.4986C10.4524 28.5633 10.9213 28.5794 14.6675 28.5794C18.4137 28.5794 18.8827 28.5633 20.3542 28.4986C21.8203 28.4339 22.8283 28.1967 23.7015 27.8572C24.607 27.5068 25.3778 27.0325 26.1432 26.2671C26.9086 25.5017 27.383 24.7309 27.7333 23.8253C28.0729 22.9467 28.3101 21.9441 28.3748 20.478C28.4395 19.0065 28.4556 18.5375 28.4556 14.7913C28.4556 11.0452 28.4395 10.5762 28.3748 9.10469C28.3101 7.63856 28.0729 6.63059 27.7333 5.75738C27.3938 4.84105 26.9248 4.07025 26.154 3.30484C25.3886 2.53944 24.6178 2.0651 23.7123 1.71474C22.8337 1.37515 21.8311 1.13799 20.365 1.0733C18.888 1.00323 18.4191 0.987061 14.6729 0.987061Z" fill="#E6EDFB"/>
<path d="M14.6731 7.69775C10.7598 7.69775 7.58496 10.8726 7.58496 14.7859C7.58496 18.6991 10.7598 21.874 14.6731 21.874C18.5863 21.874 21.7612 18.6991 21.7612 14.7859C21.7612 10.8726 18.5863 7.69775 14.6731 7.69775ZM14.6731 19.3837C12.1343 19.3837 10.0752 17.3246 10.0752 14.7859C10.0752 12.2471 12.1343 10.188 14.6731 10.188C17.2118 10.188 19.2709 12.2471 19.2709 14.7859C19.2709 17.3246 17.2118 19.3837 14.6731 19.3837Z" fill="#E6EDFB"/>
<path d="M23.6963 7.41749C23.6963 8.33382 22.9524 9.07228 22.0415 9.07228C21.1252 9.07228 20.3867 8.32843 20.3867 7.41749C20.3867 6.50115 21.1306 5.7627 22.0415 5.7627C22.9524 5.7627 23.6963 6.50654 23.6963 7.41749Z" fill="#E6EDFB"/>
</svg>
