<svg width="29" height="29" viewBox="0 0 29 29" fill="none" xmlns="http://www.w3.org/2000/svg">
<path d="M26.0935 0.987061H2.57607C1.44952 0.987061 0.538574 1.87644 0.538574 2.97604V26.5905C0.538574 27.6901 1.44952 28.5848 2.57607 28.5848H26.0935C27.22 28.5848 28.1364 27.6901 28.1364 26.5959V2.97604C28.1364 1.87644 27.22 0.987061 26.0935 0.987061ZM8.72627 24.5045H4.62973V11.3308H8.72627V24.5045ZM6.678 9.5359C5.3628 9.5359 4.30093 8.47404 4.30093 7.16422C4.30093 5.8544 5.3628 4.79254 6.678 4.79254C7.98782 4.79254 9.04969 5.8544 9.04969 7.16422C9.04969 8.46865 7.98782 9.5359 6.678 9.5359ZM24.056 24.5045H19.9648V18.1009C19.9648 16.5755 19.9379 14.6081 17.8357 14.6081C15.7066 14.6081 15.3832 16.2736 15.3832 17.9931V24.5045H11.2974V11.3308H15.2215V13.1312H15.2754C15.8198 12.0962 17.1565 11.002 19.1455 11.002C23.2906 11.002 24.056 13.7295 24.056 17.2762V24.5045V24.5045Z" fill="#E6EDFB"/>
</svg>
