<svg width="60" height="16" viewBox="0 0 60 16" fill="none" xmlns="http://www.w3.org/2000/svg">
<path d="M0.961625 12V0.32H2.52963V12H0.961625ZM2.20963 12V10.592H7.55363V12H2.20963ZM13.3143 12.288C12.5676 12.288 11.9116 12.16 11.3463 11.904C10.7809 11.648 10.3009 11.312 9.90625 10.896C9.52225 10.4693 9.22892 9.99467 9.02625 9.472C8.83425 8.94933 8.73825 8.416 8.73825 7.872V7.584C8.73825 7.04 8.83958 6.50667 9.04225 5.984C9.24492 5.45067 9.54358 4.976 9.93825 4.56C10.3329 4.13333 10.8129 3.79733 11.3783 3.552C11.9436 3.296 12.5889 3.168 13.3143 3.168C14.0396 3.168 14.6849 3.296 15.2503 3.552C15.8156 3.79733 16.2956 4.13333 16.6903 4.56C17.0849 4.976 17.3836 5.45067 17.5863 5.984C17.7889 6.50667 17.8903 7.04 17.8903 7.584V7.872C17.8903 8.416 17.7889 8.94933 17.5863 9.472C17.3943 9.99467 17.1009 10.4693 16.7063 10.896C16.3223 11.312 15.8476 11.648 15.2823 11.904C14.7169 12.16 14.0609 12.288 13.3143 12.288ZM13.3143 10.912C13.9543 10.912 14.4983 10.7733 14.9463 10.496C15.4049 10.208 15.7516 9.824 15.9862 9.344C16.2316 8.864 16.3542 8.32533 16.3542 7.728C16.3542 7.12 16.2316 6.576 15.9862 6.096C15.7409 5.616 15.3889 5.23733 14.9303 4.96C14.4823 4.68267 13.9436 4.544 13.3143 4.544C12.6956 4.544 12.1569 4.68267 11.6983 4.96C11.2396 5.23733 10.8876 5.616 10.6423 6.096C10.3969 6.576 10.2743 7.12 10.2743 7.728C10.2743 8.32533 10.3916 8.864 10.6263 9.344C10.8716 9.824 11.2183 10.208 11.6663 10.496C12.1249 10.7733 12.6743 10.912 13.3143 10.912ZM23.4227 15.328C23.0281 15.328 22.6281 15.312 22.2228 15.28C21.8281 15.248 21.4494 15.2053 21.0868 15.152V13.856C21.4708 13.9093 21.8708 13.952 22.2868 13.984C22.7134 14.0267 23.1134 14.048 23.4868 14.048C24.2654 14.048 24.8841 13.9413 25.3428 13.728C25.8121 13.5253 26.1481 13.2 26.3508 12.752C26.5641 12.3147 26.6708 11.7493 26.6708 11.056V9.424L27.1828 8.208C27.1508 9.072 26.9694 9.792 26.6388 10.368C26.3081 10.9333 25.8761 11.36 25.3428 11.648C24.8201 11.9253 24.2388 12.064 23.5988 12.064C23.0014 12.064 22.4521 11.952 21.9508 11.728C21.4601 11.4933 21.0334 11.1733 20.6708 10.768C20.3188 10.3627 20.0414 9.89867 19.8388 9.376C19.6468 8.84267 19.5508 8.28267 19.5508 7.696V7.408C19.5508 6.81067 19.6521 6.256 19.8548 5.744C20.0574 5.22133 20.3401 4.768 20.7028 4.384C21.0654 4 21.4974 3.70133 21.9988 3.488C22.5108 3.27467 23.0708 3.168 23.6788 3.168C24.3934 3.168 25.0228 3.32267 25.5668 3.632C26.1108 3.93067 26.5374 4.37333 26.8468 4.96C27.1668 5.536 27.3428 6.24533 27.3748 7.088L26.9268 7.104V3.456H28.1428V10.992C28.1428 12.016 27.9828 12.8427 27.6628 13.472C27.3534 14.112 26.8521 14.5813 26.1588 14.88C25.4761 15.1787 24.5641 15.328 23.4227 15.328ZM23.8868 10.656C24.3988 10.656 24.8628 10.544 25.2788 10.32C25.7054 10.096 26.0414 9.776 26.2868 9.36C26.5428 8.93333 26.6708 8.42667 26.6708 7.84V7.104C26.6708 6.528 26.5374 6.04267 26.2708 5.648C26.0148 5.25333 25.6788 4.95467 25.2628 4.752C24.8468 4.54933 24.3934 4.448 23.9028 4.448C23.3481 4.448 22.8574 4.576 22.4308 4.832C22.0041 5.088 21.6734 5.45067 21.4388 5.92C21.2041 6.37867 21.0868 6.92267 21.0868 7.552C21.0868 8.18133 21.2041 8.73067 21.4388 9.2C21.6841 9.66933 22.0148 10.032 22.4308 10.288C22.8574 10.5333 23.3428 10.656 23.8868 10.656ZM31.4036 12V3.456H32.9396V12H31.4036ZM30.0916 4.672V3.456H32.9396V4.672H30.0916ZM31.8356 2.08C31.4943 2.08 31.2383 1.98933 31.0676 1.808C30.9076 1.62667 30.8276 1.39733 30.8276 1.12C30.8276 0.842666 30.9076 0.613333 31.0676 0.431999C31.2383 0.250666 31.4943 0.16 31.8356 0.16C32.177 0.16 32.4276 0.250666 32.5876 0.431999C32.7583 0.613333 32.8436 0.842666 32.8436 1.12C32.8436 1.39733 32.7583 1.62667 32.5876 1.808C32.4276 1.98933 32.177 2.08 31.8356 2.08ZM35.9095 12V3.456H37.1255V7.12H36.9335C36.9335 6.27733 37.0455 5.568 37.2695 4.992C37.5042 4.40533 37.8562 3.96267 38.3255 3.664C38.7948 3.35467 39.3868 3.2 40.1015 3.2H40.1655C41.2428 3.2 42.0375 3.536 42.5495 4.208C43.0722 4.88 43.3335 5.85067 43.3335 7.12V12H41.7975V6.8C41.7975 6.13867 41.6108 5.61067 41.2375 5.216C40.8642 4.81067 40.3522 4.608 39.7015 4.608C39.0295 4.608 38.4855 4.816 38.0695 5.232C37.6535 5.648 37.4455 6.20267 37.4455 6.896V12H35.9095ZM54.9525 2.256L54.1845 3.024L57.9125 6.72H49.1125V7.76H57.8965L54.1845 11.44L54.9525 12.224L59.9285 7.232L54.9525 2.256Z" fill="#0052FE"/>
</svg>
