<svg width="171" height="37" viewBox="0 0 171 37" fill="none" xmlns="http://www.w3.org/2000/svg">
<path d="M13.423 0.00542492C13.3648 0.00826577 13.1531 0.0167883 12.9543 0.0253108C10.9231 0.110536 9.01969 0.428711 7.52825 0.931541C4.84649 1.83777 3.07522 3.37041 2.2187 5.52945C1.92609 6.26807 1.7528 7.0351 1.66616 7.96548C1.63065 8.36036 1.63065 9.38874 1.66616 9.78362C1.75138 10.7026 1.92467 11.4611 2.2187 12.1912C3.12351 14.4383 5.02688 16.0591 8.42311 17.4752C9.58218 17.9582 11.0324 18.4652 12.9046 19.0419C13.8818 19.3431 14.3718 19.4865 15.6034 19.8331C18.4286 20.6257 19.5621 20.9879 20.8021 21.4922C23.6359 22.6456 25.2012 24.0887 25.731 26.0375C25.8063 26.3159 25.8801 26.7463 25.9085 27.0702C25.9284 27.296 25.9284 27.9466 25.9085 28.1781C25.7636 29.9025 25.0435 31.1241 23.66 31.9948C23.41 32.1524 22.8987 32.4053 22.5634 32.5374C21.7893 32.8428 20.9086 33.0615 19.8433 33.2121C18.1189 33.4578 15.6034 33.5004 13.4656 33.32C10.7313 33.0885 8.75265 32.4536 7.29956 31.3442C6.96718 31.09 6.54673 30.6937 6.27827 30.3798C5.46863 29.4366 4.90046 28.2406 4.55814 26.7634C4.32803 25.7634 4.19451 24.5461 4.18883 23.3657L4.18741 23.022H2.0937H0V23.3373C0 23.6924 0.0184655 24.1725 0.0497148 24.6697C0.316755 28.796 1.63775 31.7533 4.11923 33.7817C6.42742 35.6666 9.8478 36.7291 14.3463 36.9563C15.4897 37.0146 17.0579 37.0146 18.153 36.9563C20.464 36.8342 22.4754 36.4734 24.1003 35.8896C25.3745 35.4322 26.3972 34.8655 27.2934 34.1212C27.5278 33.9266 28.0463 33.4095 28.238 33.178C29.3957 31.786 29.9908 30.1269 30.1002 27.9934C30.1187 27.644 30.1101 26.9026 30.0846 26.6227C29.9624 25.252 29.5903 24.1015 28.9213 23.0248C28.3687 22.1356 27.5676 21.2848 26.5832 20.5419C24.8517 19.2365 22.4739 18.1442 18.8206 16.9795C18.0252 16.7267 17.8363 16.667 16.8817 16.3744C14.6091 15.6784 14.3889 15.6088 13.4159 15.292C10.9089 14.4753 9.32224 13.7906 8.21005 13.0435C7.13905 12.3248 6.46577 11.5293 6.11066 10.5649C5.88908 9.96259 5.78681 9.22539 5.82374 8.49103C5.88055 7.3689 6.20441 6.50244 6.84502 5.75956C7.84642 4.59907 9.64042 3.89596 12.1943 3.6616C13.2284 3.56785 14.467 3.53944 15.315 3.59057C17.5934 3.7312 19.4797 4.29937 20.9839 5.2965C21.4314 5.59337 21.7737 5.87461 22.1671 6.26807C22.937 7.03652 23.464 7.85469 23.8631 8.89586C24.2253 9.84186 24.4441 11.0691 24.4455 12.1444V12.3404H26.5435H28.64L28.6301 12.0165C28.596 10.866 28.4525 9.86174 28.1826 8.85324C27.9142 7.85753 27.5264 6.90016 27.0591 6.08342C26.5463 5.18713 26.0094 4.48402 25.2921 3.76813C24.8588 3.3349 24.5847 3.09627 24.1188 2.74684C22.9228 1.84629 21.5095 1.16307 19.8788 0.69433C18.6416 0.339224 17.2922 0.1219 15.6957 0.0238904C15.4642 0.00968619 13.6602 -0.00451804 13.423 0.00542492Z" fill="#0052FE"/>
<path d="M97.6537 0.0129929C96.1878 0.0655486 94.7447 0.235999 93.5629 0.495937C90.8073 1.10388 88.8385 2.21323 87.5914 3.86092C86.7079 5.02709 86.225 6.39638 86.0886 8.11509C86.0659 8.40912 86.0659 9.34091 86.0886 9.63494C86.1753 10.7329 86.3954 11.6406 86.7804 12.4886C87.732 14.5837 89.6326 16.1391 92.9024 17.4941C94.1793 18.0225 95.6097 18.514 97.9804 19.2398C98.3327 19.3464 99.2843 19.6219 100.09 19.8478C101.26 20.1759 101.448 20.2299 102.249 20.4685C105.389 21.4003 107.278 22.2909 108.527 23.4301C109.602 24.4116 110.178 25.5352 110.334 26.957C110.362 27.2269 110.366 27.9371 110.339 28.2212C110.286 28.8121 110.175 29.305 109.994 29.7666C109.244 31.6842 107.35 32.8049 104.131 33.2339C102.456 33.4583 100.043 33.4938 97.9733 33.3262C95.4478 33.1231 93.5316 32.562 92.1069 31.6117C91.5089 31.2126 90.9394 30.6828 90.5004 30.1174C89.5317 28.8703 88.9366 27.1885 88.7192 25.0749C88.6582 24.4684 88.6198 23.7994 88.6198 23.2966V23.0224H86.5233H84.4253L84.4352 23.4514C84.458 24.4329 84.4992 25.0622 84.5943 25.8349C84.8784 28.1629 85.5176 30.0365 86.5645 31.6018C88.2192 34.079 90.9166 35.694 94.685 36.4611C96.0202 36.7324 97.3796 36.89 99.1167 36.9738C99.6281 36.998 101.749 36.998 102.256 36.9738C103.899 36.8943 105.203 36.738 106.46 36.471C109.871 35.748 112.213 34.2637 113.464 32.0336C114.138 30.8348 114.486 29.4598 114.541 27.7837C114.594 26.2312 114.321 24.8775 113.709 23.6545C113.322 22.8832 112.818 22.1943 112.156 21.531C110.936 20.3094 109.322 19.308 107 18.3308C105.739 17.801 104.225 17.274 101.894 16.5524C101.675 16.4856 101.406 16.4018 101.297 16.3677C101.188 16.3337 101.031 16.2868 100.949 16.2612C100.867 16.2371 100.688 16.1817 100.551 16.1405C100.415 16.0979 100.083 15.9956 99.8127 15.9132C96.55 14.9118 94.7901 14.2527 93.462 13.534C91.9535 12.7173 91.0303 11.7982 90.5814 10.6605C90.178 9.64062 90.1425 8.2202 90.4933 7.15488C90.8627 6.04127 91.6141 5.21174 92.7958 4.62085C93.8157 4.10949 95.1481 3.78564 96.7872 3.64928C97.3384 3.6024 97.5358 3.59246 98.1935 3.57399C100.114 3.52144 101.774 3.74018 103.242 4.24017C105.477 5.0001 107.125 6.38785 108.027 8.26423C108.565 9.38495 108.83 10.5596 108.884 12.0738L108.892 12.3408H110.982H113.07L113.061 11.9531C113.031 10.6278 112.804 9.32671 112.389 8.09378C111.405 5.17339 109.423 2.93338 106.614 1.56836C104.695 0.635138 102.443 0.120945 99.7985 0.0115725C99.4008 -0.00405214 98.1281 -0.00405214 97.6537 0.0129929Z" fill="#0052FE"/>
<path d="M51.8516 1.2369C51.4681 1.83063 49.8815 4.27518 49.6514 4.62745C49.6187 4.67858 49.2281 5.27942 48.7849 5.96264C48.3418 6.64587 47.9512 7.24671 47.9185 7.29784C47.8844 7.34898 47.4824 7.96828 47.0236 8.67566C46.5648 9.38303 46.1359 10.0435 46.0691 10.1458C46.0023 10.2466 45.5876 10.8858 45.1472 11.5662C44.7055 12.2452 44.3007 12.8687 44.2481 12.9511C44.1941 13.0335 43.7751 13.6784 43.3163 14.3858C42.8575 15.0931 42.4555 15.7124 42.4214 15.7636C42.3888 15.8147 42.0138 16.3928 41.5877 17.0491C40.1743 19.2251 38.9244 21.1498 38.7511 21.4169C38.6573 21.5617 38.2553 22.181 37.8562 22.7947C37.4585 23.4083 37.0792 23.9921 37.0125 24.0944C36.9471 24.1952 36.5239 24.8472 36.0722 25.5432C35.6205 26.2378 34.8634 27.4054 34.389 28.1355C33.9145 28.8656 33.1219 30.0871 32.6276 30.8485C32.1333 31.6098 31.3336 32.8399 30.8521 33.5828C30.3706 34.3242 29.7854 35.2262 29.5524 35.5856C29.3195 35.9449 29.0922 36.2944 29.0467 36.3626L28.9644 36.4875H31.4473H33.9316L34.5111 35.5955C34.8293 35.1055 35.129 34.6438 35.1773 34.57C35.2256 34.4961 35.629 33.8754 36.0722 33.1922C36.5153 32.5089 36.9244 31.8783 36.9798 31.793C37.0366 31.7064 37.1218 31.5757 37.1687 31.5019C37.3008 31.2987 38.6516 29.2178 38.8477 28.9167C38.9414 28.7718 39.3448 28.1525 39.7425 27.5389C40.1402 26.9253 40.5195 26.34 40.5863 26.2392C40.653 26.1369 41.082 25.4764 41.5408 24.7691C41.9996 24.0617 42.4016 23.4424 42.4357 23.3912C42.4953 23.3003 43.1501 22.289 44.9896 19.4567C45.5095 18.6556 45.9881 17.9169 46.0549 17.8161C46.1202 17.7138 46.5435 17.0618 46.9952 16.3672C47.4469 15.6712 48.2111 14.4951 48.6926 13.7537C49.873 11.9369 52.0093 8.6444 53.8985 5.73538C54.3431 5.05215 54.7394 4.44137 54.7791 4.37887C54.8203 4.31638 55.2166 3.70559 55.6598 3.02237C56.1044 2.33914 56.5277 1.68575 56.603 1.5707C56.6782 1.45564 56.8615 1.17298 57.0092 0.942868C57.1583 0.711339 57.2833 0.523843 57.2904 0.522423C57.2961 0.522423 57.3004 8.61458 57.3004 18.505V36.4875H59.3927H61.4835L61.4793 28.8371C61.4779 23.8557 61.4807 21.1882 61.4906 21.1924C61.4977 21.1938 61.7477 21.3984 62.046 21.6441C62.3457 21.8899 62.8457 22.3032 63.1582 22.5603C63.4721 22.8188 64.1312 23.3614 64.6227 23.7677C65.1156 24.1739 65.678 24.637 65.8726 24.7975C66.2263 25.0886 67.6183 26.2349 69.8271 28.0559C70.462 28.5801 71.1722 29.1653 71.4052 29.357C71.6381 29.5488 72.3484 30.134 72.9833 30.6581C73.6196 31.1823 74.3952 31.8215 74.7077 32.0786C75.0202 32.3357 75.8071 32.9848 76.4548 33.5189C77.1039 34.0529 78.1423 34.9095 78.763 35.4208C79.3837 35.9322 79.9277 36.381 79.9718 36.4194L80.0527 36.4875L83.064 36.4847L86.0753 36.4804L85.6407 36.1239C85.4006 35.9265 84.8793 35.4989 84.4802 35.1722C84.0825 34.8441 83.5228 34.3853 83.2373 34.151C82.9518 33.918 82.5086 33.553 82.2501 33.3413C81.993 33.1297 81.2644 32.5317 80.6308 32.0118C79.9988 31.4919 79.2658 30.8911 79.0045 30.6766C77.6749 29.5857 77.2701 29.2519 76.6963 28.7818C76.3525 28.5005 75.854 28.0914 75.5883 27.8727C75.3227 27.6539 74.8952 27.3031 74.6367 27.0914C74.3796 26.8798 73.8639 26.4579 73.4932 26.1525C73.1225 25.8486 72.6026 25.421 72.3398 25.2051C72.0756 24.9892 71.6438 24.6341 71.381 24.4182C71.1168 24.2009 70.4734 23.6725 69.9493 23.2435C69.4265 22.8146 68.749 22.2577 68.4436 22.0078C67.6141 21.3259 66.9266 20.762 66.3485 20.2876C66.063 20.0532 65.5971 19.6697 65.3116 19.4354C65.0247 19.201 64.6468 18.8913 64.4693 18.7465C64.2931 18.6016 64.1483 18.4794 64.1468 18.4737C64.1468 18.4695 64.9025 17.8459 65.8272 17.0902C66.7505 16.3332 68.3527 15.0207 69.3882 14.1741C70.4237 13.3261 71.3882 12.5364 71.533 12.4185C71.6779 12.3006 72.2717 11.8134 72.854 11.3375C73.4364 10.8603 75.0443 9.54495 76.4264 8.41288C79.726 5.71265 81.1862 4.51666 83.4717 2.64596C84.5114 1.79512 85.5214 0.968436 85.7188 0.806508L86.0753 0.51532L83.064 0.511061L80.0527 0.50822L79.9718 0.576398C79.9277 0.61475 79.3837 1.06361 78.763 1.57496C78.1423 2.08631 77.1039 2.94283 76.4548 3.4769C75.8071 4.01098 75.0202 4.66012 74.7077 4.91721C74.3952 5.17431 73.6196 5.8135 72.9833 6.33764C72.3484 6.86177 71.6381 7.44699 71.4052 7.63875C71.1722 7.8305 70.462 8.41572 69.8271 8.93985C68.3499 10.1572 66.3314 11.8205 65.8726 12.1983C64.5545 13.2849 61.9352 15.444 61.6469 15.6812C61.5645 15.7494 61.4935 15.8062 61.4864 15.8062C61.4807 15.8062 61.4779 12.3645 61.4793 8.1572L61.4835 0.50822L56.9027 0.50964H52.3218L51.8516 1.2369Z" fill="#0052FE"/>
<path d="M53.1818 19.2168C53.1377 19.2281 53.0809 19.2494 53.0568 19.2622C53.017 19.2835 52.8039 19.4554 52.5582 19.667C52.517 19.7026 52.4659 19.7437 52.4446 19.7608C52.4233 19.7764 52.4034 19.7935 52.3991 19.7977C52.3934 19.8048 52.3267 19.8602 52.1875 19.9753C52.169 19.9909 52.1108 20.0392 52.0596 20.0832C51.9574 20.1699 51.4347 20.6074 51.3352 20.6912C51.3026 20.7196 51.2599 20.7537 51.2429 20.7693C51.2273 20.7835 51.1847 20.819 51.1492 20.8474C51.1136 20.8758 51.0824 20.9014 51.0781 20.9057C51.0739 20.9099 51.0298 20.9483 50.9787 20.9909C50.9276 21.0335 50.8793 21.0747 50.8708 21.0832C50.8622 21.0903 50.8281 21.1201 50.794 21.1471C50.76 21.1741 50.5441 21.3559 50.3125 21.5505C50.081 21.7451 49.8637 21.9269 49.8282 21.9568C49.5725 22.1698 49.3708 22.3389 49.3097 22.3914C49.2472 22.444 48.9475 22.6954 48.7643 22.8488C48.7302 22.8772 48.6492 22.9454 48.5867 22.9994C48.4134 23.1457 48.4063 23.1528 48.3225 23.2195C48.2799 23.255 48.2387 23.2891 48.2302 23.2976C48.2231 23.3062 48.1933 23.3303 48.1663 23.3502C48.1393 23.3715 48.1038 23.3999 48.0881 23.4141C48.0469 23.4525 47.9276 23.5519 47.6265 23.8047C47.297 24.0803 47.2998 24.0775 47.2799 24.0959C47.2714 24.103 47.2259 24.1414 47.1791 24.1783C47.1322 24.2167 47.091 24.2522 47.0867 24.2564C47.0796 24.265 46.9362 24.3857 46.8879 24.424C46.8765 24.434 46.6933 24.5874 46.4816 24.7649C46.27 24.9425 46.0683 25.1115 46.0342 25.1414C46.0001 25.1698 45.9575 25.2039 45.9405 25.2195C45.9234 25.2337 45.895 25.2578 45.8765 25.272C45.8595 25.2877 45.8055 25.3317 45.7586 25.3715C45.7118 25.4112 45.6592 25.4567 45.6393 25.4723C45.4348 25.6413 45.3496 25.8573 45.4035 26.0646C45.4135 26.1016 45.4192 26.1328 45.4163 26.1328C45.4135 26.1328 45.4263 26.1626 45.4447 26.1996C45.493 26.2962 45.5882 26.3984 45.6649 26.4368C45.8126 26.5121 45.6862 26.5078 48.0952 26.5163L50.3466 26.5234L50.456 26.5675C50.5852 26.6214 50.6435 26.6612 50.7656 26.7848C50.8281 26.8487 50.875 26.9126 50.9105 26.9851C50.9531 27.0731 51.1804 27.6356 51.4006 28.1995C51.4276 28.2691 51.4602 28.3458 51.473 28.37C51.4858 28.3927 51.4957 28.4154 51.4943 28.4197C51.4943 28.424 51.4986 28.4396 51.5043 28.4552C51.5355 28.5362 51.6364 28.7918 51.8239 29.2634C51.9389 29.5532 52.0341 29.7961 52.0355 29.8032C52.0369 29.8117 52.0454 29.8316 52.054 29.8472C52.0625 29.8628 52.1179 30.0006 52.1775 30.1526C52.2372 30.3046 52.2926 30.4424 52.2983 30.458C52.3054 30.4736 52.3409 30.5631 52.3778 30.6569C52.4148 30.7506 52.4503 30.8429 52.4588 30.8628C52.4659 30.8827 52.473 30.9012 52.473 30.9054C52.473 30.9097 52.4815 30.9282 52.4915 30.948C52.5142 30.9921 52.5838 31.1654 52.5838 31.1782C52.5838 31.1824 52.5966 31.2165 52.6122 31.252C52.6278 31.289 52.6406 31.323 52.642 31.3287C52.642 31.3344 52.6505 31.3514 52.6591 31.3671C52.6676 31.3827 52.6761 31.4026 52.6775 31.4111C52.679 31.4196 52.7045 31.4864 52.7329 31.5603C52.865 31.8941 52.919 31.9651 53.0937 32.046C53.25 32.1171 53.4474 32.1142 53.598 32.0389C53.6875 31.9935 53.7826 31.8941 53.8352 31.7904L53.8835 31.6952L53.8877 25.6939C53.8892 21.7224 53.8863 19.6685 53.8764 19.6244C53.8338 19.4213 53.6903 19.2722 53.49 19.221C53.3735 19.1912 53.2784 19.1898 53.1818 19.2168Z" fill="#0052FE"/>
<path d="M122.195 36.4777V30.7233C122.195 29.3167 122.387 28.1178 122.77 27.1268C123.184 26.1358 123.886 25.2406 124.875 24.4414C125.864 23.6102 127.204 22.811 128.895 22.0437L135.452 19.0227C137.047 18.2874 138.307 17.3443 139.233 16.1934C140.158 15.0106 140.621 13.4921 140.621 11.6379C140.621 9.40005 139.998 7.65775 138.754 6.41096C137.51 5.16417 135.755 4.54078 133.49 4.54078C131.256 4.54078 129.502 5.16417 128.225 6.41096C126.949 7.65775 126.311 9.40005 126.311 11.6379H121.812C121.812 9.62383 122.227 7.76964 123.057 6.07529C123.918 4.38093 125.21 3.03824 126.933 2.0472C128.656 1.0242 130.842 0.512695 133.49 0.512695C136.138 0.512695 138.307 1.0242 139.998 2.0472C141.721 3.03824 142.997 4.34896 143.827 5.97938C144.688 7.60979 145.119 9.38406 145.119 11.3022V11.9735C145.119 14.4991 144.385 16.625 142.918 18.3513C141.482 20.0777 139.536 21.5003 137.079 22.6192L130.523 25.6402C129.055 26.3116 128.066 26.9829 127.555 27.6543C127.045 28.3256 126.79 29.2208 126.79 30.3397V34.7514L125.545 32.5455H155.337L151.101 36.4777H122.195Z" fill="#131C2F"/>
<path d="M150.479 36.4777V32.5455H160.242C162.125 32.5455 163.576 32.018 164.597 30.9631C165.65 29.8761 166.176 28.4375 166.176 26.6473C166.176 24.825 165.666 23.4024 164.645 22.3794C163.624 21.3244 162.156 20.797 160.242 20.797H150.479V17.7279H159.572C161.805 17.7279 163.768 17.9997 165.459 18.5432C167.181 19.0866 168.522 19.9977 169.479 21.2765C170.468 22.5233 170.962 24.2336 170.962 26.4075V27.0789C170.962 29.1249 170.547 30.8672 169.718 32.3058C168.888 33.7124 167.628 34.7993 165.937 35.5666C164.246 36.3019 162.148 36.4777 159.596 36.4777H150.479ZM146.746 20.797V1.27995H151.436V20.797H146.746ZM150.479 19.9338V16.8648H158.95C160.928 16.8648 162.38 16.3373 163.305 15.2823C164.262 14.1954 164.741 12.8207 164.741 11.1583C164.741 9.46399 164.262 8.08933 163.305 7.03435C162.38 5.94741 160.928 5.40394 158.95 5.40394H150.479V1.27995H158.136C161.965 1.27995 164.821 2.09516 166.703 3.72557C168.585 5.32402 169.527 7.64176 169.527 10.6788V11.3502C169.527 13.4921 169.048 15.2024 168.091 16.4812C167.134 17.7279 165.794 18.6231 164.071 19.1665C162.38 19.678 160.402 19.9338 158.136 19.9338H150.479Z" fill="#131C2F"/>
<path d="M13.423 0.00542492C13.3648 0.00826577 13.1531 0.0167883 12.9543 0.0253108C10.9231 0.110536 9.01969 0.428711 7.52825 0.931541C4.84649 1.83777 3.07522 3.37041 2.2187 5.52945C1.92609 6.26807 1.7528 7.0351 1.66616 7.96548C1.63065 8.36036 1.63065 9.38874 1.66616 9.78362C1.75138 10.7026 1.92467 11.4611 2.2187 12.1912C3.12351 14.4383 5.02688 16.0591 8.42311 17.4752C9.58218 17.9582 11.0324 18.4652 12.9046 19.0419C13.8818 19.3431 14.3718 19.4865 15.6034 19.8331C18.4286 20.6257 19.5621 20.9879 20.8021 21.4922C23.6359 22.6456 25.2012 24.0887 25.731 26.0375C25.8063 26.3159 25.8801 26.7463 25.9085 27.0702C25.9284 27.296 25.9284 27.9466 25.9085 28.1781C25.7636 29.9025 25.0435 31.1241 23.66 31.9948C23.41 32.1524 22.8987 32.4053 22.5634 32.5374C21.7893 32.8428 20.9086 33.0615 19.8433 33.2121C18.1189 33.4578 15.6034 33.5004 13.4656 33.32C10.7313 33.0885 8.75265 32.4536 7.29956 31.3442C6.96718 31.09 6.54673 30.6937 6.27827 30.3798C5.46863 29.4366 4.90046 28.2406 4.55814 26.7634C4.32803 25.7634 4.19451 24.5461 4.18883 23.3657L4.18741 23.022H2.0937H0V23.3373C0 23.6924 0.0184655 24.1725 0.0497148 24.6697C0.316755 28.796 1.63775 31.7533 4.11923 33.7817C6.42742 35.6666 9.8478 36.7291 14.3463 36.9563C15.4897 37.0146 17.0579 37.0146 18.153 36.9563C20.464 36.8342 22.4754 36.4734 24.1003 35.8896C25.3745 35.4322 26.3972 34.8655 27.2934 34.1212C27.5278 33.9266 28.0463 33.4095 28.238 33.178C29.3957 31.786 29.9908 30.1269 30.1002 27.9934C30.1187 27.644 30.1101 26.9026 30.0846 26.6227C29.9624 25.252 29.5903 24.1015 28.9213 23.0248C28.3687 22.1356 27.5676 21.2848 26.5832 20.5419C24.8517 19.2365 22.4739 18.1442 18.8206 16.9795C18.0252 16.7267 17.8363 16.667 16.8817 16.3744C14.6091 15.6784 14.3889 15.6088 13.4159 15.292C10.9089 14.4753 9.32224 13.7906 8.21005 13.0435C7.13905 12.3248 6.46577 11.5293 6.11066 10.5649C5.88908 9.96259 5.78681 9.22539 5.82374 8.49103C5.88055 7.3689 6.20441 6.50244 6.84502 5.75956C7.84642 4.59907 9.64042 3.89596 12.1943 3.6616C13.2284 3.56785 14.467 3.53944 15.315 3.59057C17.5934 3.7312 19.4797 4.29937 20.9839 5.2965C21.4314 5.59337 21.7737 5.87461 22.1671 6.26807C22.937 7.03652 23.464 7.85469 23.8631 8.89586C24.2253 9.84186 24.4441 11.0691 24.4455 12.1444V12.3404H26.5435H28.64L28.6301 12.0165C28.596 10.866 28.4525 9.86174 28.1826 8.85324C27.9142 7.85753 27.5264 6.90016 27.0591 6.08342C26.5463 5.18713 26.0094 4.48402 25.2921 3.76813C24.8588 3.3349 24.5847 3.09627 24.1188 2.74684C22.9228 1.84629 21.5095 1.16307 19.8788 0.69433C18.6416 0.339224 17.2922 0.1219 15.6957 0.0238904C15.4642 0.00968619 13.6602 -0.00451804 13.423 0.00542492Z" fill="#0052FE"/>
<path d="M97.6537 0.0129929C96.1878 0.0655486 94.7447 0.235999 93.5629 0.495937C90.8073 1.10388 88.8385 2.21323 87.5914 3.86092C86.7079 5.02709 86.225 6.39638 86.0886 8.11509C86.0659 8.40912 86.0659 9.34091 86.0886 9.63494C86.1753 10.7329 86.3954 11.6406 86.7804 12.4886C87.732 14.5837 89.6326 16.1391 92.9024 17.4941C94.1793 18.0225 95.6097 18.514 97.9804 19.2398C98.3327 19.3464 99.2843 19.6219 100.09 19.8478C101.26 20.1759 101.448 20.2299 102.249 20.4685C105.389 21.4003 107.278 22.2909 108.527 23.4301C109.602 24.4116 110.178 25.5352 110.334 26.957C110.362 27.2269 110.366 27.9371 110.339 28.2212C110.286 28.8121 110.175 29.305 109.994 29.7666C109.244 31.6842 107.35 32.8049 104.131 33.2339C102.456 33.4583 100.043 33.4938 97.9733 33.3262C95.4478 33.1231 93.5316 32.562 92.1069 31.6117C91.5089 31.2126 90.9394 30.6828 90.5004 30.1174C89.5317 28.8703 88.9366 27.1885 88.7192 25.0749C88.6582 24.4684 88.6198 23.7994 88.6198 23.2966V23.0224H86.5233H84.4253L84.4352 23.4514C84.458 24.4329 84.4992 25.0622 84.5943 25.8349C84.8784 28.1629 85.5176 30.0365 86.5645 31.6018C88.2192 34.079 90.9166 35.694 94.685 36.4611C96.0202 36.7324 97.3796 36.89 99.1167 36.9738C99.6281 36.998 101.749 36.998 102.256 36.9738C103.899 36.8943 105.203 36.738 106.46 36.471C109.871 35.748 112.213 34.2637 113.464 32.0336C114.138 30.8348 114.486 29.4598 114.541 27.7837C114.594 26.2312 114.321 24.8775 113.709 23.6545C113.322 22.8832 112.818 22.1943 112.156 21.531C110.936 20.3094 109.322 19.308 107 18.3308C105.739 17.801 104.225 17.274 101.894 16.5524C101.675 16.4856 101.406 16.4018 101.297 16.3677C101.188 16.3337 101.031 16.2868 100.949 16.2612C100.867 16.2371 100.688 16.1817 100.551 16.1405C100.415 16.0979 100.083 15.9956 99.8127 15.9132C96.55 14.9118 94.7901 14.2527 93.462 13.534C91.9535 12.7173 91.0303 11.7982 90.5814 10.6605C90.178 9.64062 90.1425 8.2202 90.4933 7.15488C90.8627 6.04127 91.6141 5.21174 92.7958 4.62085C93.8157 4.10949 95.1481 3.78564 96.7872 3.64928C97.3384 3.6024 97.5358 3.59246 98.1935 3.57399C100.114 3.52144 101.774 3.74018 103.242 4.24017C105.477 5.0001 107.125 6.38785 108.027 8.26423C108.565 9.38495 108.83 10.5596 108.884 12.0738L108.892 12.3408H110.982H113.07L113.061 11.9531C113.031 10.6278 112.804 9.32671 112.389 8.09378C111.405 5.17339 109.423 2.93338 106.614 1.56836C104.695 0.635138 102.443 0.120945 99.7985 0.0115725C99.4008 -0.00405214 98.1281 -0.00405214 97.6537 0.0129929Z" fill="#0052FE"/>
<path d="M51.8516 1.2369C51.4681 1.83063 49.8815 4.27518 49.6514 4.62745C49.6187 4.67858 49.2281 5.27942 48.7849 5.96264C48.3418 6.64587 47.9512 7.24671 47.9185 7.29784C47.8844 7.34898 47.4824 7.96828 47.0236 8.67566C46.5648 9.38303 46.1359 10.0435 46.0691 10.1458C46.0023 10.2466 45.5876 10.8858 45.1472 11.5662C44.7055 12.2452 44.3007 12.8687 44.2481 12.9511C44.1941 13.0335 43.7751 13.6784 43.3163 14.3858C42.8575 15.0931 42.4555 15.7124 42.4214 15.7636C42.3888 15.8147 42.0138 16.3928 41.5877 17.0491C40.1743 19.2251 38.9244 21.1498 38.7511 21.4169C38.6573 21.5617 38.2553 22.181 37.8562 22.7947C37.4585 23.4083 37.0792 23.9921 37.0125 24.0944C36.9471 24.1952 36.5239 24.8472 36.0722 25.5432C35.6205 26.2378 34.8634 27.4054 34.389 28.1355C33.9145 28.8656 33.1219 30.0871 32.6276 30.8485C32.1333 31.6098 31.3336 32.8399 30.8521 33.5828C30.3706 34.3242 29.7854 35.2262 29.5524 35.5856C29.3195 35.9449 29.0922 36.2944 29.0467 36.3626L28.9644 36.4875H31.4473H33.9316L34.5111 35.5955C34.8293 35.1055 35.129 34.6438 35.1773 34.57C35.2256 34.4961 35.629 33.8754 36.0722 33.1922C36.5153 32.5089 36.9244 31.8783 36.9798 31.793C37.0366 31.7064 37.1218 31.5757 37.1687 31.5019C37.3008 31.2987 38.6516 29.2178 38.8477 28.9167C38.9414 28.7718 39.3448 28.1525 39.7425 27.5389C40.1402 26.9253 40.5195 26.34 40.5863 26.2392C40.653 26.1369 41.082 25.4764 41.5408 24.7691C41.9996 24.0617 42.4016 23.4424 42.4357 23.3912C42.4953 23.3003 43.1501 22.289 44.9896 19.4567C45.5095 18.6556 45.9881 17.9169 46.0549 17.8161C46.1202 17.7138 46.5435 17.0618 46.9952 16.3672C47.4469 15.6712 48.2111 14.4951 48.6926 13.7537C49.873 11.9369 52.0093 8.6444 53.8985 5.73538C54.3431 5.05215 54.7394 4.44137 54.7791 4.37887C54.8203 4.31638 55.2166 3.70559 55.6598 3.02237C56.1044 2.33914 56.5277 1.68575 56.603 1.5707C56.6782 1.45564 56.8615 1.17298 57.0092 0.942868C57.1583 0.711339 57.2833 0.523843 57.2904 0.522423C57.2961 0.522423 57.3004 8.61458 57.3004 18.505V36.4875H59.3927H61.4835L61.4793 28.8371C61.4779 23.8557 61.4807 21.1882 61.4906 21.1924C61.4977 21.1938 61.7477 21.3984 62.046 21.6441C62.3457 21.8899 62.8457 22.3032 63.1582 22.5603C63.4721 22.8188 64.1312 23.3614 64.6227 23.7677C65.1156 24.1739 65.678 24.637 65.8726 24.7975C66.2263 25.0886 67.6183 26.2349 69.8271 28.0559C70.462 28.5801 71.1722 29.1653 71.4052 29.357C71.6381 29.5488 72.3484 30.134 72.9833 30.6581C73.6196 31.1823 74.3952 31.8215 74.7077 32.0786C75.0202 32.3357 75.8071 32.9848 76.4548 33.5189C77.1039 34.0529 78.1423 34.9095 78.763 35.4208C79.3837 35.9322 79.9277 36.381 79.9718 36.4194L80.0527 36.4875L83.064 36.4847L86.0753 36.4804L85.6407 36.1239C85.4006 35.9265 84.8793 35.4989 84.4802 35.1722C84.0825 34.8441 83.5228 34.3853 83.2373 34.151C82.9518 33.918 82.5086 33.553 82.2501 33.3413C81.993 33.1297 81.2644 32.5317 80.6308 32.0118C79.9988 31.4919 79.2658 30.8911 79.0045 30.6766C77.6749 29.5857 77.2701 29.2519 76.6963 28.7818C76.3525 28.5005 75.854 28.0914 75.5883 27.8727C75.3227 27.6539 74.8952 27.3031 74.6367 27.0914C74.3796 26.8798 73.8639 26.4579 73.4932 26.1525C73.1225 25.8486 72.6026 25.421 72.3398 25.2051C72.0756 24.9892 71.6438 24.6341 71.381 24.4182C71.1168 24.2009 70.4734 23.6725 69.9493 23.2435C69.4265 22.8146 68.749 22.2577 68.4436 22.0078C67.6141 21.3259 66.9266 20.762 66.3485 20.2876C66.063 20.0532 65.5971 19.6697 65.3116 19.4354C65.0247 19.201 64.6468 18.8913 64.4693 18.7465C64.2931 18.6016 64.1483 18.4794 64.1468 18.4737C64.1468 18.4695 64.9025 17.8459 65.8272 17.0902C66.7505 16.3332 68.3527 15.0207 69.3882 14.1741C70.4237 13.3261 71.3882 12.5364 71.533 12.4185C71.6779 12.3006 72.2717 11.8134 72.854 11.3375C73.4364 10.8603 75.0443 9.54495 76.4264 8.41288C79.726 5.71265 81.1862 4.51666 83.4717 2.64596C84.5114 1.79512 85.5214 0.968436 85.7188 0.806508L86.0753 0.51532L83.064 0.511061L80.0527 0.50822L79.9718 0.576398C79.9277 0.61475 79.3837 1.06361 78.763 1.57496C78.1423 2.08631 77.1039 2.94283 76.4548 3.4769C75.8071 4.01098 75.0202 4.66012 74.7077 4.91721C74.3952 5.17431 73.6196 5.8135 72.9833 6.33764C72.3484 6.86177 71.6381 7.44699 71.4052 7.63875C71.1722 7.8305 70.462 8.41572 69.8271 8.93985C68.3499 10.1572 66.3314 11.8205 65.8726 12.1983C64.5545 13.2849 61.9352 15.444 61.6469 15.6812C61.5645 15.7494 61.4935 15.8062 61.4864 15.8062C61.4807 15.8062 61.4779 12.3645 61.4793 8.1572L61.4835 0.50822L56.9027 0.50964H52.3218L51.8516 1.2369Z" fill="#0052FE"/>
<path d="M53.1818 19.2168C53.1377 19.2281 53.0809 19.2494 53.0568 19.2622C53.017 19.2835 52.8039 19.4554 52.5582 19.667C52.517 19.7026 52.4659 19.7437 52.4446 19.7608C52.4233 19.7764 52.4034 19.7935 52.3991 19.7977C52.3934 19.8048 52.3267 19.8602 52.1875 19.9753C52.169 19.9909 52.1108 20.0392 52.0596 20.0832C51.9574 20.1699 51.4347 20.6074 51.3352 20.6912C51.3026 20.7196 51.2599 20.7537 51.2429 20.7693C51.2273 20.7835 51.1847 20.819 51.1492 20.8474C51.1136 20.8758 51.0824 20.9014 51.0781 20.9057C51.0739 20.9099 51.0298 20.9483 50.9787 20.9909C50.9276 21.0335 50.8793 21.0747 50.8708 21.0832C50.8622 21.0903 50.8281 21.1201 50.794 21.1471C50.76 21.1741 50.5441 21.3559 50.3125 21.5505C50.081 21.7451 49.8637 21.9269 49.8282 21.9568C49.5725 22.1698 49.3708 22.3389 49.3097 22.3914C49.2472 22.444 48.9475 22.6954 48.7643 22.8488C48.7302 22.8772 48.6492 22.9454 48.5867 22.9994C48.4134 23.1457 48.4063 23.1528 48.3225 23.2195C48.2799 23.255 48.2387 23.2891 48.2302 23.2976C48.2231 23.3062 48.1933 23.3303 48.1663 23.3502C48.1393 23.3715 48.1038 23.3999 48.0881 23.4141C48.0469 23.4525 47.9276 23.5519 47.6265 23.8047C47.297 24.0803 47.2998 24.0775 47.2799 24.0959C47.2714 24.103 47.2259 24.1414 47.1791 24.1783C47.1322 24.2167 47.091 24.2522 47.0867 24.2564C47.0796 24.265 46.9362 24.3857 46.8879 24.424C46.8765 24.434 46.6933 24.5874 46.4816 24.7649C46.27 24.9425 46.0683 25.1115 46.0342 25.1414C46.0001 25.1698 45.9575 25.2039 45.9405 25.2195C45.9234 25.2337 45.895 25.2578 45.8765 25.272C45.8595 25.2877 45.8055 25.3317 45.7586 25.3715C45.7118 25.4112 45.6592 25.4567 45.6393 25.4723C45.4348 25.6413 45.3496 25.8573 45.4035 26.0646C45.4135 26.1016 45.4192 26.1328 45.4163 26.1328C45.4135 26.1328 45.4263 26.1626 45.4447 26.1996C45.493 26.2962 45.5882 26.3984 45.6649 26.4368C45.8126 26.5121 45.6862 26.5078 48.0952 26.5163L50.3466 26.5234L50.456 26.5675C50.5852 26.6214 50.6435 26.6612 50.7656 26.7848C50.8281 26.8487 50.875 26.9126 50.9105 26.9851C50.9531 27.0731 51.1804 27.6356 51.4006 28.1995C51.4276 28.2691 51.4602 28.3458 51.473 28.37C51.4858 28.3927 51.4957 28.4154 51.4943 28.4197C51.4943 28.424 51.4986 28.4396 51.5043 28.4552C51.5355 28.5362 51.6364 28.7918 51.8239 29.2634C51.9389 29.5532 52.0341 29.7961 52.0355 29.8032C52.0369 29.8117 52.0454 29.8316 52.054 29.8472C52.0625 29.8628 52.1179 30.0006 52.1775 30.1526C52.2372 30.3046 52.2926 30.4424 52.2983 30.458C52.3054 30.4736 52.3409 30.5631 52.3778 30.6569C52.4148 30.7506 52.4503 30.8429 52.4588 30.8628C52.4659 30.8827 52.473 30.9012 52.473 30.9054C52.473 30.9097 52.4815 30.9282 52.4915 30.948C52.5142 30.9921 52.5838 31.1654 52.5838 31.1782C52.5838 31.1824 52.5966 31.2165 52.6122 31.252C52.6278 31.289 52.6406 31.323 52.642 31.3287C52.642 31.3344 52.6505 31.3514 52.6591 31.3671C52.6676 31.3827 52.6761 31.4026 52.6775 31.4111C52.679 31.4196 52.7045 31.4864 52.7329 31.5603C52.865 31.8941 52.919 31.9651 53.0937 32.046C53.25 32.1171 53.4474 32.1142 53.598 32.0389C53.6875 31.9935 53.7826 31.8941 53.8352 31.7904L53.8835 31.6952L53.8877 25.6939C53.8892 21.7224 53.8863 19.6685 53.8764 19.6244C53.8338 19.4213 53.6903 19.2722 53.49 19.221C53.3735 19.1912 53.2784 19.1898 53.1818 19.2168Z" fill="#0052FE"/>
<path d="M122.195 36.4777V30.7233C122.195 29.3167 122.387 28.1178 122.77 27.1268C123.184 26.1358 123.886 25.2406 124.875 24.4414C125.864 23.6102 127.204 22.811 128.895 22.0437L135.452 19.0227C137.047 18.2874 138.307 17.3443 139.233 16.1934C140.158 15.0106 140.621 13.4921 140.621 11.6379C140.621 9.40005 139.998 7.65775 138.754 6.41096C137.51 5.16417 135.755 4.54078 133.49 4.54078C131.256 4.54078 129.502 5.16417 128.225 6.41096C126.949 7.65775 126.311 9.40005 126.311 11.6379H121.812C121.812 9.62383 122.227 7.76964 123.057 6.07529C123.918 4.38093 125.21 3.03824 126.933 2.0472C128.656 1.0242 130.842 0.512695 133.49 0.512695C136.138 0.512695 138.307 1.0242 139.998 2.0472C141.721 3.03824 142.997 4.34896 143.827 5.97938C144.688 7.60979 145.119 9.38406 145.119 11.3022V11.9735C145.119 14.4991 144.385 16.625 142.918 18.3513C141.482 20.0777 139.536 21.5003 137.079 22.6192L130.523 25.6402C129.055 26.3116 128.066 26.9829 127.555 27.6543C127.045 28.3256 126.79 29.2208 126.79 30.3397V34.7514L125.545 32.5455H155.337L151.101 36.4777H122.195Z" fill="#131C2F"/>
<path d="M150.479 36.4777V32.5455H160.242C162.125 32.5455 163.576 32.018 164.597 30.9631C165.65 29.8761 166.176 28.4375 166.176 26.6473C166.176 24.825 165.666 23.4024 164.645 22.3794C163.624 21.3244 162.156 20.797 160.242 20.797H150.479V17.7279H159.572C161.805 17.7279 163.768 17.9997 165.459 18.5432C167.181 19.0866 168.522 19.9977 169.479 21.2765C170.468 22.5233 170.962 24.2336 170.962 26.4075V27.0789C170.962 29.1249 170.547 30.8672 169.718 32.3058C168.888 33.7124 167.628 34.7993 165.937 35.5666C164.246 36.3019 162.148 36.4777 159.596 36.4777H150.479ZM146.746 20.797V1.27995H151.436V20.797H146.746ZM150.479 19.9338V16.8648H158.95C160.928 16.8648 162.38 16.3373 163.305 15.2823C164.262 14.1954 164.741 12.8207 164.741 11.1583C164.741 9.46399 164.262 8.08933 163.305 7.03435C162.38 5.94741 160.928 5.40394 158.95 5.40394H150.479V1.27995H158.136C161.965 1.27995 164.821 2.09516 166.703 3.72557C168.585 5.32402 169.527 7.64176 169.527 10.6788V11.3502C169.527 13.4921 169.048 15.2024 168.091 16.4812C167.134 17.7279 165.794 18.6231 164.071 19.1665C162.38 19.678 160.402 19.9338 158.136 19.9338H150.479Z" fill="#131C2F"/>
</svg>
