<svg width="171" height="37" fill="none" xmlns="http://www.w3.org/2000/svg"><path d="m13.423.005-.469.02C10.924.111 9.02.43 7.528.932c-2.682.906-4.453 2.438-5.31 4.597-.292.74-.465 1.506-.552 2.436a15.528 15.528 0 0 0 0 1.819c.085.919.259 1.677.553 2.407.905 2.247 2.808 3.868 6.204 5.284 1.16.483 2.61.99 4.482 1.567.977.301 1.467.444 2.698.791 2.826.793 3.96 1.155 5.2 1.66 2.833 1.153 4.398 2.596 4.928 4.545.075.278.15.708.177 1.032.02.226.02.877 0 1.108-.144 1.724-.864 2.946-2.248 3.817a8.22 8.22 0 0 1-1.097.542c-.774.306-1.654.525-2.72.675-1.724.246-4.24.288-6.377.108-2.735-.231-4.713-.866-6.166-1.976a7.55 7.55 0 0 1-1.022-.964c-.81-.943-1.378-2.14-1.72-3.617-.23-1-.363-2.217-.37-3.397v-.344H0v.315c0 .355.018.835.05 1.333.267 4.126 1.588 7.083 4.07 9.112 2.307 1.885 5.728 2.947 10.226 3.174 1.144.059 2.712.059 3.807 0 2.311-.122 4.322-.483 5.947-1.066 1.274-.458 2.297-1.025 3.193-1.769.235-.194.753-.712.945-.943 1.158-1.392 1.753-3.051 1.862-5.185.019-.349.01-1.09-.015-1.37-.123-1.371-.495-2.521-1.164-3.598-.552-.89-1.353-1.74-2.338-2.483-1.731-1.306-4.11-2.398-7.762-3.563a145.22 145.22 0 0 0-1.94-.605c-2.272-.696-2.492-.765-3.465-1.082-2.507-.817-4.094-1.501-5.206-2.248-1.071-.72-1.744-1.515-2.1-2.48-.22-.601-.323-1.339-.286-2.073.057-1.122.38-1.989 1.021-2.731 1.001-1.16 2.795-1.864 5.35-2.098 1.033-.094 2.272-.123 3.12-.071 2.278.14 4.165.708 5.669 1.705.447.297.79.579 1.183.972a7.183 7.183 0 0 1 1.696 2.628c.362.946.581 2.173.582 3.248v.196h4.195l-.01-.323a13.467 13.467 0 0 0-.447-3.164 11.878 11.878 0 0 0-1.124-2.77c-.513-.896-1.05-1.599-1.767-2.315a9.546 9.546 0 0 0-1.173-1.021c-1.196-.9-2.61-1.584-4.24-2.053-1.237-.355-2.587-.572-4.183-.67a71.176 71.176 0 0 0-2.273-.019zM97.654.013c-1.466.053-2.91.223-4.091.483-2.756.608-4.725 1.717-5.972 3.365-.883 1.166-1.366 2.535-1.502 4.254a16.968 16.968 0 0 0 0 1.52c.086 1.098.306 2.006.691 2.854.952 2.095 2.853 3.65 6.122 5.005 1.277.529 2.708 1.02 5.078 1.746.353.106 1.304.382 2.11.608 1.17.328 1.358.382 2.159.62 3.14.932 5.029 1.823 6.278 2.962 1.075.982 1.651 2.105 1.807 3.527.028.27.032.98.005 1.264a5.476 5.476 0 0 1-.345 1.546c-.75 1.917-2.644 3.038-5.863 3.467-1.675.224-4.088.26-6.158.092-2.525-.203-4.441-.764-5.866-1.714a7.018 7.018 0 0 1-1.607-1.495c-.968-1.247-1.563-2.928-1.78-5.042-.062-.607-.1-1.276-.1-1.778v-.275h-4.195l.01.43c.023.98.064 1.61.16 2.383.283 2.328.923 4.201 1.97 5.767 1.654 2.477 4.352 4.092 8.12 4.86 1.335.27 2.695.428 4.432.512.511.024 2.632.024 3.139 0 1.643-.08 2.947-.236 4.204-.503 3.411-.723 5.753-2.207 7.004-4.437.674-1.2 1.022-2.574 1.077-4.25.053-1.553-.22-2.906-.832-4.13a8.124 8.124 0 0 0-1.553-2.123c-1.22-1.222-2.834-2.223-5.156-3.2-1.261-.53-2.775-1.057-5.106-1.779-.219-.066-.488-.15-.597-.184l-.348-.107c-.082-.024-.261-.08-.398-.12l-.738-.228c-3.263-1.001-5.023-1.66-6.351-2.379-1.508-.817-2.432-1.736-2.88-2.873-.404-1.02-.44-2.44-.089-3.506.37-1.114 1.121-1.943 2.303-2.534 1.02-.512 2.352-.835 3.991-.972.551-.047.749-.057 1.406-.075 1.921-.053 3.581.166 5.049.666 2.235.76 3.883 2.148 4.785 4.024.538 1.121.803 2.296.857 3.81l.008.267h4.178l-.009-.388a13.02 13.02 0 0 0-.672-3.86c-.984-2.92-2.966-5.16-5.775-6.525-1.919-.933-4.171-1.447-6.816-1.556a46.982 46.982 0 0 0-2.144.001z" fill="#0052FE"/><path d="M51.852 1.237c-.384.594-1.97 3.038-2.2 3.39l-.867 1.336-.866 1.335a1305.24 1305.24 0 0 1-2.771 4.268l-.9 1.385-.932 1.435c-.459.707-.86 1.326-.895 1.378l-.833 1.285a24391.656 24391.656 0 0 0-4.575 7.045c-.066.101-.49.753-.94 1.45-.453.694-1.21 1.861-1.684 2.591l-1.761 2.713-1.776 2.735a3671.29 3671.29 0 0 0-1.805 2.78l-.083.124h4.968l.58-.892.665-1.025a1125.22 1125.22 0 0 0 1.992-3.068l1.679-2.585.895-1.378c.397-.614.776-1.199.843-1.3a1552.331 1552.331 0 0 0 1.85-2.848c.06-.09.714-1.102 2.554-3.934.52-.801.998-1.54 1.065-1.64.065-.103.489-.755.94-1.45l1.698-2.613c1.18-1.817 3.316-5.11 5.206-8.019l.88-1.356c.041-.063.438-.673.88-1.357l.944-1.451.406-.628a7.24 7.24 0 0 1 .281-.42c.006 0 .01 8.092.01 17.982v17.982h4.183l-.004-7.65c-.001-4.981.002-7.649.012-7.645.007.002.257.206.555.452l1.112.916c.314.259.973.801 1.465 1.208l1.25 1.03a7368.894 7368.894 0 0 1 7.11 5.86l1.725 1.42 1.747 1.44 2.308 1.903c.62.511 1.165.96 1.209.998l.08.069 3.012-.003 3.011-.005-.434-.356-1.16-.952c-.398-.328-.958-.787-1.244-1.021l-.987-.81-1.62-1.33c-.631-.52-1.364-1.12-1.626-1.334l-2.308-1.895a596.77 596.77 0 0 1-2.06-1.69c-.256-.212-.772-.634-1.143-.94l-1.153-.947-.959-.787-1.432-1.174c-.522-.43-1.2-.986-1.505-1.236l-2.096-1.72-1.036-.853-.843-.688a7.656 7.656 0 0 1-.322-.273c0-.005.755-.628 1.68-1.384a4000.038 4000.038 0 0 1 5.706-4.671l1.321-1.082 3.572-2.924 7.046-5.767c1.04-.85 2.05-1.678 2.247-1.84l.356-.29L83.064.51 80.053.508l-.081.068c-.044.039-.588.488-1.209.999l-2.308 1.902-1.747 1.44c-.313.257-1.088.897-1.725 1.42a1873.162 1873.162 0 0 1-3.156 2.603 27066.577 27066.577 0 0 1-8.18 6.741 1.577 1.577 0 0 1-.16.125c-.006 0-.01-3.441-.008-7.649l.005-7.649-4.581.002h-4.581l-.47.727z" fill="#0052FE"/><path d="M53.182 19.217a.71.71 0 0 0-.125.045c-.04.021-.253.193-.499.405a4.45 4.45 0 0 1-.159.13 6.421 6.421 0 0 1-.212.178l-.127.108-.725.608c-.032.029-.075.063-.092.078-.016.015-.058.05-.094.078a2.087 2.087 0 0 0-.07.059 3.677 3.677 0 0 1-.1.085l-.108.092-.077.064c-.034.027-.25.209-.481.404l-.485.406A504.265 504.265 0 0 1 48.586 23c-.173.146-.18.153-.264.22l-.092.078a.559.559 0 0 1-.064.052l-.078.064c-.041.038-.16.138-.462.39-.329.276-.326.274-.346.292l-.1.082a3.13 3.13 0 0 0-.093.078c-.007.009-.15.13-.2.168-.01.01-.194.163-.405.34l-.448.377c-.034.029-.076.063-.093.079l-.065.052c-.017.016-.07.06-.117.1-.047.04-.1.085-.12.1-.204.17-.29.385-.236.593.01.037.016.068.013.068a.588.588 0 0 0 .249.304c.148.075.021.07 2.43.08l2.252.006.109.044c.13.054.188.094.31.218.062.064.109.128.145.2.042.088.27.65.49 1.215.027.07.06.146.072.17a.153.153 0 0 1 .021.05c0 .004.005.02.01.035.032.081.132.337.32.808a36.538 36.538 0 0 1 .23.584c.008.016.064.154.123.306l.121.305.08.199.08.206c.008.02.015.038.015.042a2.15 2.15 0 0 1 .11.273.56.56 0 0 0 .03.074c.015.037.028.071.029.077 0 .005.008.022.017.038a.195.195 0 0 1 .019.044c.001.009.027.075.055.15.132.333.186.404.36.485a.606.606 0 0 0 .505-.007.6.6 0 0 0 .237-.249l.048-.095.005-6.001c.001-3.972-.002-6.025-.012-6.07a.516.516 0 0 0-.386-.403.57.57 0 0 0-.308-.004z" fill="#0052FE"/><path d="M122.195 36.478v-5.755c0-1.406.192-2.605.575-3.596.414-.991 1.116-1.886 2.105-2.686.989-.83 2.329-1.63 4.02-2.397l6.557-3.021c1.595-.736 2.855-1.679 3.781-2.83.925-1.182 1.388-2.7 1.388-4.555 0-2.238-.623-3.98-1.867-5.227-1.244-1.247-2.999-1.87-5.264-1.87-2.234 0-3.988.623-5.265 1.87-1.276 1.247-1.914 2.99-1.914 5.227h-4.499c0-2.014.415-3.868 1.245-5.563.861-1.694 2.153-3.037 3.876-4.028 1.723-1.023 3.909-1.534 6.557-1.534 2.648 0 4.817.511 6.508 1.534 1.723.991 2.999 2.302 3.829 3.932.861 1.63 1.292 3.405 1.292 5.323v.671c0 2.526-.734 4.652-2.201 6.378-1.436 1.727-3.382 3.15-5.839 4.268l-6.556 3.021c-1.468.672-2.457 1.343-2.968 2.014-.51.672-.765 1.567-.765 2.686v4.411l-1.245-2.206h29.792l-4.236 3.933h-28.906z" fill="#131C2F"/><path d="M150.479 36.478v-3.933h9.763c1.883 0 3.334-.527 4.355-1.582 1.053-1.087 1.579-2.526 1.579-4.316 0-1.822-.51-3.245-1.531-4.268-1.021-1.055-2.489-1.582-4.403-1.582h-9.763v-3.07h9.093c2.233 0 4.196.273 5.887.816 1.722.544 3.063 1.455 4.02 2.733.989 1.247 1.483 2.958 1.483 5.131v.672c0 2.046-.415 3.788-1.244 5.227-.83 1.406-2.09 2.493-3.781 3.26-1.691.736-3.789.912-6.341.912h-9.117zm-3.733-15.681V1.28h4.69v19.517h-4.69zm3.733-.863v-3.07h8.471c1.978 0 3.43-.527 4.355-1.582.957-1.087 1.436-2.461 1.436-4.124 0-1.694-.479-3.069-1.436-4.124-.925-1.087-2.377-1.63-4.355-1.63h-8.471V1.28h7.657c3.829 0 6.685.815 8.567 2.446 1.882 1.598 2.824 3.916 2.824 6.953v.671c0 2.142-.479 3.852-1.436 5.131-.957 1.247-2.297 2.142-4.02 2.685-1.691.512-3.669.768-5.935.768h-7.657z" fill="#131C2F"/><path d="m13.423.005-.469.02C10.924.111 9.02.43 7.528.932c-2.682.906-4.453 2.438-5.31 4.597-.292.74-.465 1.506-.552 2.436a15.528 15.528 0 0 0 0 1.819c.085.919.259 1.677.553 2.407.905 2.247 2.808 3.868 6.204 5.284 1.16.483 2.61.99 4.482 1.567.977.301 1.467.444 2.698.791 2.826.793 3.96 1.155 5.2 1.66 2.833 1.153 4.398 2.596 4.928 4.545.075.278.15.708.177 1.032.02.226.02.877 0 1.108-.144 1.724-.864 2.946-2.248 3.817a8.22 8.22 0 0 1-1.097.542c-.774.306-1.654.525-2.72.675-1.724.246-4.24.288-6.377.108-2.735-.231-4.713-.866-6.166-1.976a7.55 7.55 0 0 1-1.022-.964c-.81-.943-1.378-2.14-1.72-3.617-.23-1-.363-2.217-.37-3.397v-.344H0v.315c0 .355.018.835.05 1.333.267 4.126 1.588 7.083 4.07 9.112 2.307 1.885 5.728 2.947 10.226 3.174 1.144.059 2.712.059 3.807 0 2.311-.122 4.322-.483 5.947-1.066 1.274-.458 2.297-1.025 3.193-1.769.235-.194.753-.712.945-.943 1.158-1.392 1.753-3.051 1.862-5.185.019-.349.01-1.09-.015-1.37-.123-1.371-.495-2.521-1.164-3.598-.552-.89-1.353-1.74-2.338-2.483-1.731-1.306-4.11-2.398-7.762-3.563a145.22 145.22 0 0 0-1.94-.605c-2.272-.696-2.492-.765-3.465-1.082-2.507-.817-4.094-1.501-5.206-2.248-1.071-.72-1.744-1.515-2.1-2.48-.22-.601-.323-1.339-.286-2.073.057-1.122.38-1.989 1.021-2.731 1.001-1.16 2.795-1.864 5.35-2.098 1.033-.094 2.272-.123 3.12-.071 2.278.14 4.165.708 5.669 1.705.447.297.79.579 1.183.972a7.183 7.183 0 0 1 1.696 2.628c.362.946.581 2.173.582 3.248v.196h4.195l-.01-.323a13.467 13.467 0 0 0-.447-3.164 11.878 11.878 0 0 0-1.124-2.77c-.513-.896-1.05-1.599-1.767-2.315a9.546 9.546 0 0 0-1.173-1.021c-1.196-.9-2.61-1.584-4.24-2.053-1.237-.355-2.587-.572-4.183-.67a71.176 71.176 0 0 0-2.273-.019zM97.654.013c-1.466.053-2.91.223-4.091.483-2.756.608-4.725 1.717-5.972 3.365-.883 1.166-1.366 2.535-1.502 4.254a16.968 16.968 0 0 0 0 1.52c.086 1.098.306 2.006.691 2.854.952 2.095 2.853 3.65 6.122 5.005 1.277.529 2.708 1.02 5.078 1.746.353.106 1.304.382 2.11.608 1.17.328 1.358.382 2.159.62 3.14.932 5.029 1.823 6.278 2.962 1.075.982 1.651 2.105 1.807 3.527.028.27.032.98.005 1.264a5.476 5.476 0 0 1-.345 1.546c-.75 1.917-2.644 3.038-5.863 3.467-1.675.224-4.088.26-6.158.092-2.525-.203-4.441-.764-5.866-1.714a7.018 7.018 0 0 1-1.607-1.495c-.968-1.247-1.563-2.928-1.78-5.042-.062-.607-.1-1.276-.1-1.778v-.275h-4.195l.01.43c.023.98.064 1.61.16 2.383.283 2.328.923 4.201 1.97 5.767 1.654 2.477 4.352 4.092 8.12 4.86 1.335.27 2.695.428 4.432.512.511.024 2.632.024 3.139 0 1.643-.08 2.947-.236 4.204-.503 3.411-.723 5.753-2.207 7.004-4.437.674-1.2 1.022-2.574 1.077-4.25.053-1.553-.22-2.906-.832-4.13a8.124 8.124 0 0 0-1.553-2.123c-1.22-1.222-2.834-2.223-5.156-3.2-1.261-.53-2.775-1.057-5.106-1.779-.219-.066-.488-.15-.597-.184l-.348-.107c-.082-.024-.261-.08-.398-.12l-.738-.228c-3.263-1.001-5.023-1.66-6.351-2.379-1.508-.817-2.432-1.736-2.88-2.873-.404-1.02-.44-2.44-.089-3.506.37-1.114 1.121-1.943 2.303-2.534 1.02-.512 2.352-.835 3.991-.972.551-.047.749-.057 1.406-.075 1.921-.053 3.581.166 5.049.666 2.235.76 3.883 2.148 4.785 4.024.538 1.121.803 2.296.857 3.81l.008.267h4.178l-.009-.388a13.02 13.02 0 0 0-.672-3.86c-.984-2.92-2.966-5.16-5.775-6.525-1.919-.933-4.171-1.447-6.816-1.556a46.982 46.982 0 0 0-2.144.001z" fill="#0052FE"/><path d="M51.852 1.237c-.384.594-1.97 3.038-2.2 3.39l-.867 1.336-.866 1.335a1305.24 1305.24 0 0 1-2.771 4.268l-.9 1.385-.932 1.435c-.459.707-.86 1.326-.895 1.378l-.833 1.285a24391.656 24391.656 0 0 0-4.575 7.045c-.066.101-.49.753-.94 1.45-.453.694-1.21 1.861-1.684 2.591l-1.761 2.713-1.776 2.735a3671.29 3671.29 0 0 0-1.805 2.78l-.083.124h4.968l.58-.892.665-1.025a1125.22 1125.22 0 0 0 1.992-3.068l1.679-2.585.895-1.378c.397-.614.776-1.199.843-1.3a1552.331 1552.331 0 0 0 1.85-2.848c.06-.09.714-1.102 2.554-3.934.52-.801.998-1.54 1.065-1.64.065-.103.489-.755.94-1.45l1.698-2.613c1.18-1.817 3.316-5.11 5.206-8.019l.88-1.356c.041-.063.438-.673.88-1.357l.944-1.451.406-.628a7.24 7.24 0 0 1 .281-.42c.006 0 .01 8.092.01 17.982v17.982h4.183l-.004-7.65c-.001-4.981.002-7.649.012-7.645.007.002.257.206.555.452l1.112.916c.314.259.973.801 1.465 1.208l1.25 1.03a7368.894 7368.894 0 0 1 7.11 5.86l1.725 1.42 1.747 1.44 2.308 1.903c.62.511 1.165.96 1.209.998l.08.069 3.012-.003 3.011-.005-.434-.356-1.16-.952c-.398-.328-.958-.787-1.244-1.021l-.987-.81-1.62-1.33c-.631-.52-1.364-1.12-1.626-1.334l-2.308-1.895a596.77 596.77 0 0 1-2.06-1.69c-.256-.212-.772-.634-1.143-.94l-1.153-.947-.959-.787-1.432-1.174c-.522-.43-1.2-.986-1.505-1.236l-2.096-1.72-1.036-.853-.843-.688a7.656 7.656 0 0 1-.322-.273c0-.005.755-.628 1.68-1.384a4000.038 4000.038 0 0 1 5.706-4.671l1.321-1.082 3.572-2.924 7.046-5.767c1.04-.85 2.05-1.678 2.247-1.84l.356-.29L83.064.51 80.053.508l-.081.068c-.044.039-.588.488-1.209.999l-2.308 1.902-1.747 1.44c-.313.257-1.088.897-1.725 1.42a1873.162 1873.162 0 0 1-3.156 2.603 27066.577 27066.577 0 0 1-8.18 6.741 1.577 1.577 0 0 1-.16.125c-.006 0-.01-3.441-.008-7.649l.005-7.649-4.581.002h-4.581l-.47.727z" fill="#0052FE"/><path d="M53.182 19.217a.71.71 0 0 0-.125.045c-.04.021-.253.193-.499.405a4.45 4.45 0 0 1-.159.13 6.421 6.421 0 0 1-.212.178l-.127.108-.725.608c-.032.029-.075.063-.092.078-.016.015-.058.05-.094.078a2.087 2.087 0 0 0-.07.059 3.677 3.677 0 0 1-.1.085l-.108.092-.077.064c-.034.027-.25.209-.481.404l-.485.406A504.265 504.265 0 0 1 48.586 23c-.173.146-.18.153-.264.22l-.092.078a.559.559 0 0 1-.064.052l-.078.064c-.041.038-.16.138-.462.39-.329.276-.326.274-.346.292l-.1.082a3.13 3.13 0 0 0-.093.078c-.007.009-.15.13-.2.168-.01.01-.194.163-.405.34l-.448.377c-.034.029-.076.063-.093.079l-.065.052c-.017.016-.07.06-.117.1-.047.04-.1.085-.12.1-.204.17-.29.385-.236.593.01.037.016.068.013.068a.588.588 0 0 0 .249.304c.148.075.021.07 2.43.08l2.252.006.109.044c.13.054.188.094.31.218.062.064.109.128.145.2.042.088.27.65.49 1.215.027.07.06.146.072.17a.153.153 0 0 1 .021.05c0 .004.005.02.01.035.032.081.132.337.32.808a36.538 36.538 0 0 1 .23.584c.008.016.064.154.123.306l.121.305.08.199.08.206c.008.02.015.038.015.042a2.15 2.15 0 0 1 .11.273.56.56 0 0 0 .03.074c.015.037.028.071.029.077 0 .005.008.022.017.038a.195.195 0 0 1 .019.044c.001.009.027.075.055.15.132.333.186.404.36.485a.606.606 0 0 0 .505-.007.6.6 0 0 0 .237-.249l.048-.095.005-6.001c.001-3.972-.002-6.025-.012-6.07a.516.516 0 0 0-.386-.403.57.57 0 0 0-.308-.004z" fill="#0052FE"/><path d="M122.195 36.478v-5.755c0-1.406.192-2.605.575-3.596.414-.991 1.116-1.886 2.105-2.686.989-.83 2.329-1.63 4.02-2.397l6.557-3.021c1.595-.736 2.855-1.679 3.781-2.83.925-1.182 1.388-2.7 1.388-4.555 0-2.238-.623-3.98-1.867-5.227-1.244-1.247-2.999-1.87-5.264-1.87-2.234 0-3.988.623-5.265 1.87-1.276 1.247-1.914 2.99-1.914 5.227h-4.499c0-2.014.415-3.868 1.245-5.563.861-1.694 2.153-3.037 3.876-4.028 1.723-1.023 3.909-1.534 6.557-1.534 2.648 0 4.817.511 6.508 1.534 1.723.991 2.999 2.302 3.829 3.932.861 1.63 1.292 3.405 1.292 5.323v.671c0 2.526-.734 4.652-2.201 6.378-1.436 1.727-3.382 3.15-5.839 4.268l-6.556 3.021c-1.468.672-2.457 1.343-2.968 2.014-.51.672-.765 1.567-.765 2.686v4.411l-1.245-2.206h29.792l-4.236 3.933h-28.906z" fill="#131C2F"/><path d="M150.479 36.478v-3.933h9.763c1.883 0 3.334-.527 4.355-1.582 1.053-1.087 1.579-2.526 1.579-4.316 0-1.822-.51-3.245-1.531-4.268-1.021-1.055-2.489-1.582-4.403-1.582h-9.763v-3.07h9.093c2.233 0 4.196.273 5.887.816 1.722.544 3.063 1.455 4.02 2.733.989 1.247 1.483 2.958 1.483 5.131v.672c0 2.046-.415 3.788-1.244 5.227-.83 1.406-2.09 2.493-3.781 3.26-1.691.736-3.789.912-6.341.912h-9.117zm-3.733-15.681V1.28h4.69v19.517h-4.69zm3.733-.863v-3.07h8.471c1.978 0 3.43-.527 4.355-1.582.957-1.087 1.436-2.461 1.436-4.124 0-1.694-.479-3.069-1.436-4.124-.925-1.087-2.377-1.63-4.355-1.63h-8.471V1.28h7.657c3.829 0 6.685.815 8.567 2.446 1.882 1.598 2.824 3.916 2.824 6.953v.671c0 2.142-.479 3.852-1.436 5.131-.957 1.247-2.297 2.142-4.02 2.685-1.691.512-3.669.768-5.935.768h-7.657z" fill="#131C2F"/></svg>