<svg width="166" height="55" fill="none" xmlns="http://www.w3.org/2000/svg"><path d="m19.947.977-.676.029c-2.928.123-5.673.581-7.823 1.306-3.867 1.307-6.42 3.517-7.655 6.63-.422 1.065-.672 2.17-.797 3.512-.051.57-.051 2.052 0 2.621.123 1.325.373 2.419.797 3.472 1.304 3.24 4.049 5.576 8.945 7.618 1.671.696 3.762 1.428 6.462 2.259 1.409.434 2.115.641 3.89 1.14 4.074 1.143 5.709 1.666 7.497 2.393 4.085 1.663 6.342 3.743 7.106 6.553.108.402.215 1.022.256 1.49.029.325.029 1.263 0 1.597-.209 2.486-1.247 4.247-3.242 5.503-.36.227-1.098.591-1.581.782-1.116.44-2.386.756-3.922.973-2.486.354-6.113.415-9.195.155-3.943-.334-6.796-1.249-8.89-2.848a10.893 10.893 0 0 1-1.473-1.391c-1.168-1.36-1.987-3.084-2.48-5.214-.332-1.442-.525-3.197-.533-4.899l-.002-.495H.594v.454c0 .512.026 1.204.071 1.921.385 5.95 2.29 10.213 5.868 13.138 3.328 2.718 8.26 4.25 14.745 4.577 1.649.084 3.91.084 5.489 0 3.332-.176 6.232-.696 8.575-1.538 1.837-.66 3.312-1.476 4.604-2.55a15.252 15.252 0 0 0 1.362-1.36c1.669-2.007 2.527-4.398 2.685-7.475.026-.503.014-1.572-.023-1.976-.176-1.976-.713-3.635-1.677-5.187-.797-1.282-1.952-2.51-3.371-3.58-2.497-1.882-5.925-3.457-11.192-5.137-1.147-.364-1.42-.45-2.796-.872-3.277-1.004-3.594-1.104-4.997-1.56-3.615-1.178-5.902-2.165-7.506-3.243-1.544-1.036-2.515-2.183-3.027-3.573-.32-.869-.467-1.932-.414-2.99.082-1.618.55-2.868 1.473-3.939 1.444-1.673 4.03-2.687 7.713-3.025 1.49-.135 3.277-.176 4.5-.102 3.284.203 6.004 1.022 8.173 2.46.645.428 1.138.833 1.706 1.4 1.11 1.108 1.87 2.288 2.445 3.79.522 1.363.837 3.133.84 4.683v.283H41.887l-.014-.467c-.05-1.66-.256-3.107-.645-4.561-.387-1.436-.946-2.816-1.62-3.994a15.057 15.057 0 0 0-2.548-3.338 13.747 13.747 0 0 0-1.692-1.472c-1.724-1.299-3.762-2.284-6.113-2.96-1.784-.512-3.73-.825-6.031-.966-.334-.02-2.935-.041-3.277-.027zM141.393.987c-2.113.076-4.194.322-5.898.697-3.973.876-6.812 2.476-8.61 4.851-1.274 1.682-1.97 3.656-2.166 6.134a24.264 24.264 0 0 0 0 2.191c.124 1.583.442 2.892.997 4.115 1.372 3.02 4.112 5.263 8.827 7.217 1.841.762 3.903 1.47 7.321 2.517.508.153 1.88.55 3.041.876 1.688.473 1.958.551 3.113.895 4.529 1.344 7.252 2.628 9.053 4.27 1.55 1.416 2.379 3.035 2.605 5.086.04.389.047 1.413.008 1.822-.078.852-.238 1.563-.498 2.228-1.081 2.765-3.813 4.381-8.454 5-2.415.323-5.894.374-8.878.133-3.641-.293-6.404-1.102-8.458-2.472a10.106 10.106 0 0 1-2.316-2.155c-1.397-1.798-2.255-4.223-2.569-7.27a27.598 27.598 0 0 1-.143-2.564v-.395h-6.048l.015.618c.032 1.415.092 2.322.229 3.437.41 3.356 1.331 6.057 2.841 8.314 2.385 3.572 6.275 5.9 11.708 7.007 1.925.39 3.885.618 6.39.739.737.035 3.795.035 4.526 0 2.369-.115 4.249-.34 6.062-.725 4.917-1.043 8.294-3.183 10.098-6.398.971-1.729 1.473-3.711 1.553-6.128.075-2.238-.318-4.19-1.2-5.953-.558-1.112-1.285-2.105-2.239-3.062-1.759-1.761-4.086-3.205-7.434-4.614-1.819-.764-4.002-1.524-7.363-2.564-.315-.096-.702-.217-.86-.266-.157-.05-.383-.117-.501-.154-.119-.035-.377-.115-.574-.174l-1.065-.328c-4.704-1.443-7.242-2.394-9.156-3.43-2.175-1.178-3.507-2.503-4.154-4.143-.581-1.47-.633-3.518-.127-5.054.533-1.606 1.616-2.802 3.32-3.654 1.471-.737 3.392-1.204 5.755-1.4a27.912 27.912 0 0 1 2.027-.11c2.769-.075 5.163.24 7.279.961 3.223 1.096 5.599 3.097 6.9 5.802.776 1.616 1.157 3.31 1.235 5.493l.012.385h6.023l-.012-.56a18.775 18.775 0 0 0-.969-5.564c-1.419-4.21-4.276-7.44-8.327-9.408-2.767-1.346-6.013-2.087-9.826-2.245a67.757 67.757 0 0 0-3.093.002z" fill="#E6EDFB"/><path d="M75.354 2.753c-.553.856-2.84 4.38-3.172 4.888l-1.25 1.925-1.249 1.925c-.049.074-.629.967-1.29 1.987l-1.376 2.12c-.096.145-.694 1.066-1.33 2.047-.636.98-1.22 1.878-1.296 1.997l-1.343 2.069a908.639 908.639 0 0 1-1.29 1.986l-1.203 1.854a54661.029 54661.029 0 0 0-6.596 10.158l-1.356 2.089-2.427 3.737-2.54 3.912-2.56 3.942a5265.932 5265.932 0 0 0-2.602 4.008l-.119.18h7.162l.835-1.286c.46-.706.891-1.372.96-1.478l1.291-1.987 1.309-2.017c.082-.125.205-.313.272-.42l2.42-3.727c.136-.21.718-1.102 1.291-1.987s1.12-1.728 1.217-1.874l1.376-2.12c.661-1.02 1.24-1.912 1.29-1.986.086-.131 1.03-1.59 3.682-5.673.75-1.155 1.44-2.22 1.536-2.365l1.356-2.09L70.8 20.8c1.702-2.619 4.782-7.366 7.506-11.56.641-.986 1.213-1.866 1.27-1.956.06-.09.63-.971 1.27-1.956l1.36-2.093.585-.905c.215-.334.396-.605.406-.607.008 0 .014 11.668.014 25.928v25.927h6.031l-.006-11.03c-.002-7.182.002-11.028.017-11.022.01.002.37.297.8.651.433.354 1.153.95 1.604 1.32l2.112 1.742 1.802 1.484a10169.835 10169.835 0 0 1 7.977 6.575c.336.276 1.36 1.12 2.275 1.876l2.486 2.047 2.519 2.077 3.328 2.742c.895.738 1.68 1.385 1.743 1.44l.117.098 4.342-.004 4.341-.006-.626-.514-1.674-1.372c-.573-.473-1.38-1.135-1.792-1.472-.411-.336-1.05-.863-1.423-1.168l-2.335-1.917c-.911-.75-1.968-1.616-2.345-1.925-1.917-1.573-2.5-2.054-3.328-2.732l-1.597-1.31c-.383-.316-.999-.822-1.372-1.127-.371-.305-1.114-.913-1.649-1.354l-1.663-1.366c-.381-.311-1.003-.823-1.382-1.134-.381-.314-1.309-1.076-2.065-1.694l-2.17-1.782-3.021-2.48-1.495-1.229-1.215-.993a10.97 10.97 0 0 1-.465-.393c0-.006 1.09-.905 2.423-1.995 1.331-1.091 3.642-2.984 5.135-4.204l3.092-2.532 1.905-1.558 5.15-4.217c4.758-3.893 6.863-5.618 10.158-8.315 1.499-1.227 2.956-2.418 3.24-2.652l.514-.42-4.341-.006-4.342-.004-.117.098c-.063.056-.848.703-1.743 1.44l-3.328 2.742-2.519 2.077-2.486 2.048c-.915.756-1.939 1.6-2.275 1.876l-2.276 1.876a38602.831 38602.831 0 0 1-11.794 9.72 2.29 2.29 0 0 1-.231.18c-.009 0-.013-4.962-.01-11.029l.005-11.028-6.604.002h-6.605l-.678 1.049z" fill="#E6EDFB"/><path d="M77.275 28.676a1.04 1.04 0 0 0-.18.065c-.058.031-.365.279-.72.584a6.143 6.143 0 0 1-.229.189 9.37 9.37 0 0 1-.305.256l-.184.155-1.045.877-.133.112c-.022.02-.084.072-.135.113a3.365 3.365 0 0 0-.102.084l-.144.123c-.073.061-.143.12-.155.133l-.11.092c-.05.039-.361.301-.695.582l-.699.585c-.368.308-.659.551-.747.627a651.773 651.773 0 0 1-1.042.877c-.25.21-.26.22-.381.317-.062.051-.121.1-.134.113a.816.816 0 0 1-.092.075 2.99 2.99 0 0 0-.112.093c-.06.055-.232.198-.666.563-.475.397-.471.393-.5.42l-.145.119a4.422 4.422 0 0 0-.133.112c-.01.012-.217.187-.287.242l-.586.491c-.305.256-.596.5-.645.543-.049.041-.11.09-.135.113-.025.02-.065.055-.092.075-.025.023-.103.086-.17.144-.068.057-.143.123-.172.145-.295.244-.418.555-.34.854a.334.334 0 0 1 .018.099.847.847 0 0 0 .358.438c.214.108.032.102 3.505.114l3.246.01.158.064c.186.078.27.135.446.313a1.1 1.1 0 0 1 .209.29c.061.126.39.937.707 1.75.039.1.086.211.104.246a.22.22 0 0 1 .03.072c0 .006.007.028.015.05.045.118.19.486.46 1.166a52.793 52.793 0 0 1 .333.842c.012.023.092.221.178.44l.174.44.115.287.116.297c.01.029.02.056.02.062 0 .006.013.032.027.061.033.064.133.313.133.332 0 .006.019.055.041.106.023.054.041.103.043.111 0 .008.013.033.025.055a.289.289 0 0 1 .027.064c.002.012.039.108.08.215.19.481.268.584.52.7.225.103.51.099.727-.01a.865.865 0 0 0 .342-.358l.07-.138.006-8.652c.002-5.727-.003-8.688-.017-8.751a.744.744 0 0 0-.557-.582.821.821 0 0 0-.444-.006z" fill="#E6EDFB"/></svg>