<svg width="38" height="36" fill="none" xmlns="http://www.w3.org/2000/svg"><path d="M25.82 1.041c-.904.192-2 .554-3.603 1.186-2.237.881-2.768.904-4.722.136-3.197-1.243-4.53-1.514-6.326-1.31-3.705.44-6.97 2.756-8.72 6.201-1.096 2.18-1.762 5.524-1.604 8.11.282 4.474 1.796 9.286 4.123 13.104.339.553.723 1.152.847 1.321.136.17.362.486.52.712.508.746 2.078 2.587 2.654 3.13 2.045 1.874 3.988 2.123 6.925.869 2.1-.892 2.36-.949 4.371-.938 1.966 0 2.146.046 4.01.836 2.497 1.085 4.372 1.085 6.213.023 2.01-1.164 5.479-6.111 6.868-9.794.553-1.457.553-1.367 0-1.649-2.485-1.265-4.496-3.671-5.219-6.235-.474-1.683-.452-4.033.057-5.66.62-2.022 2.202-4.157 3.976-5.365l.542-.362-.7-.813c-1.66-1.92-3.717-3.061-6.303-3.513-1.3-.226-2.847-.215-3.909.011z" fill="#E6EDFB"/></svg>