<svg width="36" height="18" fill="none" xmlns="http://www.w3.org/2000/svg"><path d="M9.156.09c-.798.224-1.632.873-2.083 1.635-.42.703-.68 1.667-.609 2.258l.024.193.3-.027c.763-.081 1.51-.551 2.056-1.304.494-.681.834-1.685.834-2.469V0l-.106.004c-.064 0-.25.04-.416.086zM23.515 1.33c-.154.032-.356.234-.439.435-.071.18-.075.457-.075 7.728v7.55l.083.197a.819.819 0 0 0 .21.282c.249.17.454.103 1.201-.399.226-.152.416-.278.424-.278.007 0 .154-.094.324-.206.17-.116.7-.466 1.178-.78.478-.308 1.174-.765 1.542-1.007l1.166-.762c1.411-.923 1.815-1.187 1.957-1.277a475.818 475.818 0 0 1 2.78-1.815c1.727-1.106 1.786-1.16 1.786-1.59 0-.35-.079-.434-.87-.94-.36-.229-.7-.453-.759-.498a.563.563 0 0 0-.126-.085c-.012 0-.135-.076-.269-.17-.273-.188-1.091-.726-2.503-1.644-1.035-.677-1.707-1.111-2.466-1.613a136.62 136.62 0 0 1-1.447-.941c-.348-.229-1.06-.69-1.582-1.03a181.5 181.5 0 0 1-1.226-.807c-.462-.31-.672-.394-.889-.35zm1.95 2.97c.952 1.072 2.363 2.653 3.134 3.518.771.86 1.4 1.59 1.4 1.617 0 .027-.459.56-1.016 1.183-.562.623-1.918 2.141-3.017 3.378a871.217 871.217 0 0 1-2.186 2.446l-.186.197V9.435c0-6.832.004-7.204.067-7.146.04.036.85.941 1.803 2.012zm.13-1.083c.213.143.648.43.964.636l1.028.672c.25.166.712.466 1.028.672.316.206.716.466.89.582.174.117.774.507 1.336.874.557.363 1.016.672 1.016.69 0 .013-.316.385-.7.82l-.704.797-2.668-3.001c-1.467-1.65-2.65-2.998-2.625-3.002.02 0 .217.116.434.26zm7.223 4.73c.565.373 1.352.888 1.798 1.17.226.143.416.278.423.296.012.013-.217.188-.506.376-.284.193-.68.453-.877.583-.194.13-.443.29-.554.358-.107.067-.296.193-.419.273a1.438 1.438 0 0 1-.253.153c-.016 0-.376-.386-.795-.86l-.767-.86.76-.865c.419-.475.778-.865.794-.865.02 0 .198.107.396.242zm-1.66 2.743c.386.43.699.802.699.82 0 .035-.348.277-.91.631-.142.09-.557.363-.928.605-.368.242-1.206.784-1.859 1.21-.652.425-1.28.833-1.395.914a2.284 2.284 0 0 1-.226.139 5.83 5.83 0 0 0-.383.25c-.479.332-.988.65-1.004.632-.016-.018 5.27-5.99 5.301-5.99.004 0 .32.354.704.789zM8.75 4.422c-.317.076-.7.22-1.262.47-.783.35-.969.359-1.652.054-1.12-.493-1.586-.6-2.214-.52-1.297.175-2.44 1.094-3.053 2.46-.383.865-.616 2.19-.56 3.217.098 1.774.628 3.683 1.442 5.197.119.22.253.457.297.524a11.9 11.9 0 0 0 1.11 1.523c.716.744 1.396.842 2.424.345.735-.354.826-.376 1.53-.372.688 0 .751.018 1.404.332.873.43 1.53.43 2.174.009.704-.462 1.917-2.424 2.404-3.885.193-.577.193-.542 0-.654-.87-.501-1.574-1.456-1.827-2.473-.166-.667-.158-1.599.02-2.244.217-.802.77-1.649 1.392-2.128l.19-.144-.246-.322c-.581-.762-1.3-1.214-2.206-1.394-.455-.09-.996-.085-1.368.005z" fill="#376FE3"/></svg>