<svg width="34" height="34" fill="none" xmlns="http://www.w3.org/2000/svg"><path d="M17 33c8.837 0 16-7.163 16-16S25.837 1 17 1 1 8.163 1 17s7.163 16 16 16z" stroke="#376FE3" stroke-width="1.2" stroke-linecap="round" stroke-linejoin="round"/><path d="M20.32 13c-.438-.853-1.26-1.367-2.134-1.333h-2.371c-1.309 0-2.37 1.19-2.37 2.666 0 1.47 1.061 2.665 2.37 2.665h2.371c1.309 0 2.37 1.193 2.37 2.667 0 1.472-1.061 2.665-2.37 2.665h-2.371c-.875.034-1.696-.48-2.134-1.334m3.32-12.885v3.556m0 10.666v3.556" stroke="#376FE3" stroke-width="1.2" stroke-linecap="round" stroke-linejoin="round"/></svg>