<svg width="37" height="42" fill="none" xmlns="http://www.w3.org/2000/svg"><path d="M2.009.247C1.569.327.992.834.755 1.343.552 1.795.541 2.495.541 20.828v19.034l.237.497c.135.271.406.587.598.712.712.429 1.3.26 3.434-1.006.644-.384 1.186-.7 1.21-.7.022 0 .44-.237.925-.52.486-.293 2-1.175 3.367-1.965a758.78 758.78 0 0 0 4.405-2.542c1.062-.61 2.553-1.468 3.332-1.92 4.033-2.327 5.185-2.994 5.592-3.22.248-.135.915-.52 1.468-.847 1.491-.87 5.524-3.185 6.473-3.727 4.936-2.79 5.105-2.926 5.105-4.01 0-.881-.225-1.096-2.485-2.373-1.028-.576-1.999-1.14-2.168-1.253-.17-.125-.34-.215-.362-.215-.034 0-.384-.192-.768-.43-.78-.474-3.118-1.83-7.15-4.145-2.96-1.706-4.88-2.801-7.049-4.066-.836-.475-1.706-.972-1.92-1.096-.226-.124-1.22-.7-2.214-1.276-.994-.577-3.028-1.74-4.519-2.599a530.977 530.977 0 0 1-3.501-2.033C3.229.348 2.63.134 2.009.248zm5.569 7.49c2.722 2.699 6.755 6.687 8.958 8.867 2.202 2.168 3.998 4.01 3.998 4.077 0 .068-1.31 1.412-2.903 2.982-1.604 1.57-5.478 5.4-8.619 8.518a2339.265 2339.265 0 0 1-6.246 6.167l-.531.497V20.681c0-17.226.011-18.163.192-18.017.113.09 2.429 2.373 5.15 5.072zm.373-2.734c.61.361 1.852 1.084 2.756 1.604.903.52 2.225 1.287 2.937 1.694.711.418 2.033 1.175 2.937 1.694.903.52 2.044 1.175 2.541 1.469.497.294 2.214 1.276 3.818 2.203 1.593.915 2.903 1.694 2.903 1.74 0 .033-.903.97-1.999 2.066l-2.01 2.011-7.625-7.568c-4.191-4.157-7.569-7.557-7.5-7.568.056 0 .62.293 1.242.655zM28.588 16.93c1.616.938 3.864 2.237 5.14 2.948.644.362 1.186.7 1.209.746.034.034-.622.474-1.446.949-.814.485-1.943 1.14-2.508 1.468-.553.328-1.265.734-1.581.904-.305.17-.848.486-1.198.689-.35.215-.678.384-.723.384-.045 0-1.073-.971-2.27-2.169l-2.192-2.169 2.17-2.18c1.197-1.197 2.224-2.18 2.27-2.18.056 0 .564.271 1.13.61zm-4.744 6.913c1.107 1.085 2 2.022 2 2.067 0 .09-.995.7-2.599 1.593-.406.226-1.592.915-2.654 1.525-1.05.61-3.446 1.977-5.31 3.05-1.863 1.073-3.66 2.101-3.987 2.304-.327.192-.621.35-.644.35-.022 0-.52.283-1.095.633-1.367.836-2.824 1.638-2.87 1.593-.045-.045 15.058-15.103 15.148-15.103.012 0 .915.893 2.011 1.988z" fill="#E6EDFB"/></svg>