<svg width="165" height="43" fill="none" xmlns="http://www.w3.org/2000/svg"><path d="M48.035.904c-3.646.433-8.055 1.492-13.672 3.281-6.05 1.937-8.488 2.61-11.621 3.236-4.159.843-6.814 1.082-10.699 1.002-3.657-.08-5.446-.341-8.989-1.344-.866-.25-1.63-.421-1.686-.376-.16.091.194.467.775.809.273.148.99.456 1.595.684 4.557 1.617 11.427 2.039 19.334 1.173 2.438-.273 2.814-.33 9.126-1.424 5.23-.912 8.545-1.401 11.564-1.732 2.712-.296 9.707-.296 11.678 0 4.375.661 7.896 1.846 10.858 3.646.592.365 1.72 1.14 2.518 1.732 2.495 1.846 4.489 2.996 6.802 3.908 5.297 2.107 11.176 2.142 16.132.08 1.22-.513 1.368-.548 2.735-.627 4.227-.274 10.185-1.515 15.073-3.133 1.196-.4 3.6-1.288 5.355-1.994 4.899-1.948 6.904-2.575 9.855-3.065 2.655-.433 3.931-.524 7.975-.513 4.102 0 4.706.035 11.507.673 6.825.638 7.611.683 11.621.672 3.396 0 3.965-.034 5.127-.25 1.539-.286 2.644-.605 3.179-.935.627-.399.262-.456-.911-.171-1.766.422-3.373.547-6.118.478-3.555-.09-5.264-.33-14.208-1.96-10.14-1.845-13.011-2.175-18.195-2.073-4.158.08-6.562.479-10.299 1.743-4.911 1.652-11.621 4.877-17.922 8.625l-1.526.912-1.55.114c-2.108.148-9.593-.171-13.114-.559-1.424-.16-3.691-.672-5.263-1.185-2.894-.957-5.196-2.164-8.864-4.66-4.478-3.03-5.583-3.736-7.018-4.477-2.518-1.299-4.296-1.88-6.722-2.199C51.35.847 48.923.79 48.035.904zM6.849 18.997c-2.61.524-4.956 2.335-5.81 4.488-.866 2.2-.354 4.831 1.23 6.38 1.162 1.14 2.586 1.755 6.175 2.69 2.7.694 3.44.956 4.181 1.458 1.367.923 1.39 2.689.057 3.691-.729.559-1.242.661-3.099.661-1.56 0-1.686-.011-2.312-.308-1.3-.604-1.835-1.219-2.142-2.415l-.126-.524H.47l.068.364c.524 2.917 1.971 4.922 4.432 6.142 1.584.774 2.404.934 4.9.945 2.483.011 3.12-.102 4.727-.866 1.174-.558 2.37-1.697 2.94-2.791 1.002-1.914 1.07-4.33.182-6.096-.467-.922-1.527-1.89-2.723-2.506-1.14-.581-1.96-.866-4.728-1.63-4.159-1.161-5.127-1.822-4.99-3.406.09-1.105.957-2.05 2.244-2.415.877-.262 2.883-.16 3.874.182.82.296 1.572.957 2.085 1.846.49.866.888 1.002 2.894 1.002h1.663l-.08-.512c-.398-2.712-2.711-5.332-5.355-6.084-1.606-.467-4.238-.604-5.753-.296zM39.081 19.737c-.513.149-.9.479-1.162.957l-.25.468-.035 10.618-.023 10.63h4.672V19.624l-1.447.01c-.81 0-1.595.046-1.755.103zM53.037 19.737c-.58.137-1.116.525-1.379.992-.193.33-7.781 21.453-7.781 21.647 0 .023 1.07.034 2.381.034h2.381l.82-2.336.832-2.335 4.444.023 4.432.034.82 2.301.809 2.313H65.627l-.206-.604c-.615-1.743-7.69-21.499-7.827-21.818l-.148-.364-2.028.01c-1.116.012-2.187.046-2.38.103zm3.247 9.901c.764 2.153 1.367 3.93 1.345 3.954-.023.034-1.356.034-2.951.022l-2.894-.034 1.401-3.93 1.47-4.102c.057-.148.068-.148.16 0 .045.091.717 1.937 1.47 4.09zM104.216 19.862c-.239.194-1.64 2.154-2.164 3.03-.069.115.216.149 1.253.149h1.344l1.709-1.709 1.721-1.709h-1.778c-1.64 0-1.8.023-2.085.24zM126.535 19.84c-.536.25-1.014.73-1.185 1.185-.068.182-.125.73-.125 1.23v.9l2.312-.022 2.302-.034.034-1.744.034-1.731h-1.458c-1.174 0-1.55.045-1.914.216zM139.17 24.181c-1.049.148-1.607.32-2.61.798-4.067 1.97-5.89 7.166-4.215 12.065.934 2.735 2.871 4.614 5.526 5.332 1.128.308 3.646.274 4.819-.057 1.652-.467 2.974-1.299 3.953-2.495.513-.615 1.174-1.823 1.345-2.46l.114-.422h-1.869c-1.185 0-1.971.045-2.13.125-.137.08-.49.353-.775.615-.968.9-1.322 1.026-2.951 1.026-1.287 0-1.481-.023-1.994-.285-1.914-.946-2.973-3.59-2.574-6.392.182-1.173.478-1.982.979-2.643 1.413-1.857 4.865-2.108 6.312-.467l.445.501h2.05c1.14 0 2.085-.046 2.119-.091.114-.182-.945-2.153-1.469-2.735-1.584-1.754-4.535-2.757-7.075-2.415zM73.215 24.374c-2.484.524-4.272 1.778-5.138 3.6-.74 1.562-.763 1.755-.81 8.42l-.056 6.016h4.683l.034-6.073.034-6.06.285-.514c.535-.945 1.96-1.606 3.11-1.424.262.035.798.228 1.185.41.581.274.775.445 1.025.878l.32.535.034 6.118.034 6.13H82.5v-5.697c0-3.623.045-5.89.125-6.255.182-.843.513-1.264 1.356-1.697.706-.365.786-.387 1.709-.342 1.06.057 1.526.228 2.142.82.786.73.752.49.82 6.335.068 5.833.046 5.674.797 6.3.502.422 1.014.536 2.541.536h1.333v-5.765c0-6.392-.023-6.688-.74-8.192-.889-1.857-2.61-3.258-4.843-3.942-.683-.205-1.116-.262-2.164-.262-2.028 0-3.44.467-4.614 1.55l-.627.57-.467-.41c-.638-.582-1.538-1.152-2.176-1.357-1.276-.444-3.088-.535-4.478-.228zM102.041 24.249c-2.678.433-4.934 2.05-6.084 4.352-.661 1.31-.866 2.427-.866 4.75 0 2.28.194 3.35.832 4.752.99 2.153 3.133 3.896 5.4 4.375 1.151.25 3.577.16 4.739-.182 2.188-.616 3.817-2.017 4.751-4.045.206-.444.399-.911.433-1.06l.057-.25h-1.8c-.991 0-1.937.045-2.096.114-.148.057-.57.364-.934.695-.98.888-1.459 1.07-2.894 1.07-.991 0-1.31-.056-1.88-.273-.775-.307-1.71-1.173-2.096-1.925-.262-.524-.604-1.834-.513-1.983.034-.045 2.86-.09 6.278-.09h6.22l-.068-1.573c-.103-2.37-.501-3.76-1.515-5.275-1.026-1.55-2.689-2.757-4.432-3.224-.684-.194-2.894-.33-3.532-.228zm2.837 3.953c1.196.547 2.028 1.618 2.187 2.837l.08.547h-8.032l.068-.433c.262-1.481 1.561-2.814 3.11-3.213.695-.17 1.903-.045 2.587.262zM155.542 24.305c-1.549.274-3.019.992-4.044 1.983-.73.695-1.185 1.447-1.447 2.404l-.205.729h4.397l.274-.433c.763-1.185 3.361-1.504 4.819-.593.889.57.969 1.607.171 2.165-.524.376-1.196.57-3.35.912-2.233.364-3.019.57-3.828.968-.752.387-1.64 1.128-2.096 1.743-1.014 1.379-1.139 3.714-.274 5.4.411.798 1.402 1.732 2.302 2.188 1.299.638 2.142.798 4.238.798 1.903 0 2.792-.149 3.703-.616l.399-.205.376.354.376.364 1.595.034 1.583.046v-6.54c0-4.204-.045-6.79-.125-7.223-.171-.957-.729-2.062-1.356-2.666-.626-.604-1.88-1.254-3.076-1.595-.991-.274-3.429-.399-4.432-.217zm4.66 10.687c0 2.336-.308 3.179-1.356 3.703-1.47.752-3.555.638-4.5-.25-.832-.787-.866-2.325-.057-3.066.387-.353.991-.546 2.86-.888.9-.171 1.914-.422 2.255-.57.342-.137.661-.262.718-.273.046 0 .08.592.08 1.344zM20.201 30.583c.046 5.686.057 6.005.296 6.848.73 2.643 2.37 4.26 4.98 4.933 1.184.296 3.793.273 4.99-.046 1.925-.524 3.27-1.606 4.056-3.247.831-1.754.843-1.811.888-8.488l.046-5.947h-1.379c-1.834 0-2.381.228-2.86 1.162-.205.399-.216.74-.216 5.036 0 2.894-.046 4.83-.125 5.195-.297 1.367-1.39 2.267-2.894 2.37-1.117.068-1.857-.17-2.393-.809-.729-.843-.74-.957-.74-7.28v-5.674h-4.683l.034 5.947zM120.497 24.807c-3.087.559-5.343 2.051-6.38 4.205-.775 1.606-.82 2.233-.763 9.49l.022 3.908h4.558v-5.218c0-3.133.045-5.366.114-5.617.387-1.39 1.663-2.176 3.964-2.415l1.163-.126v-4.397l-.935.01c-.524 0-1.299.08-1.743.16zM126.25 24.898a1.761 1.761 0 0 0-.763.764l-.262.49V42.41H129.896V24.636h-1.572c-1.436 0-1.63.023-2.074.262z" fill="#E6EDFB"/></svg>