<svg width="33" height="22" fill="none" xmlns="http://www.w3.org/2000/svg"><path d="M33 20.436c0 .865-.736 1.564-1.642 1.564H18.142c-.436 0-.853-.165-1.161-.458a1.527 1.527 0 0 1-.481-1.106c0-.414.173-.812.48-1.105a1.684 1.684 0 0 1 1.162-.458h13.216c.908 0 1.642.7 1.642 1.563zM33 11c0 .864-.736 1.564-1.642 1.564H1.642c-.436 0-.853-.165-1.161-.458A1.527 1.527 0 0 1 0 11c0-.415.173-.812.48-1.106a1.684 1.684 0 0 1 1.162-.458h29.716c.908 0 1.642.701 1.642 1.564zM31.358 3.127c.436 0 .853-.165 1.161-.458.308-.293.481-.69.481-1.105 0-.415-.173-.813-.48-1.106A1.684 1.684 0 0 0 31.357 0H11.542c-.216 0-.43.04-.628.119-.2.079-.38.194-.533.339a1.56 1.56 0 0 0-.356.507 1.499 1.499 0 0 0 0 1.197c.082.19.203.362.356.507.152.145.333.26.533.34.199.078.412.118.628.118h19.816z" fill="#054BDC"/></svg>