<svg width="28" height="23" fill="none" xmlns="http://www.w3.org/2000/svg"><path d="M8.943 22.998c10.411 0 16.108-8.628 16.108-16.108 0-.243-.006-.49-.016-.733a11.499 11.499 0 0 0 2.823-2.932c-1.032.46-2.127.76-3.25.89a5.693 5.693 0 0 0 2.49-3.131 11.381 11.381 0 0 1-3.594 1.374 5.67 5.67 0 0 0-9.652 5.162A16.081 16.081 0 0 1 2.184 1.61a5.668 5.668 0 0 0 1.752 7.555 5.669 5.669 0 0 1-2.565-.706v.07a5.66 5.66 0 0 0 4.543 5.552 5.626 5.626 0 0 1-2.554.097 5.673 5.673 0 0 0 5.286 3.935 11.356 11.356 0 0 1-8.385 2.343 16.064 16.064 0 0 0 8.682 2.543z" fill="#E6EDFB"/></svg>