<svg width="28" height="29" fill="none" xmlns="http://www.w3.org/2000/svg"><g clip-path="url(#a)"><path d="M27.475 9.266s-.27-1.902-1.1-2.738c-1.051-1.1-2.226-1.105-2.765-1.17-3.86-.28-9.654-.28-9.654-.28h-.01s-5.795 0-9.654.28c-.54.065-1.715.07-2.766 1.17C.696 7.364.432 9.266.432 9.266s-.28 2.237-.28 4.469v2.091c0 2.232.275 4.469.275 4.469s.27 1.902 1.094 2.738c1.051 1.1 2.43 1.062 3.045 1.18 2.21.21 9.385.275 9.385.275s5.8-.01 9.659-.285c.539-.065 1.714-.07 2.765-1.17.83-.836 1.1-2.738 1.1-2.738s.275-2.232.275-4.469v-2.091c0-2.232-.275-4.469-.275-4.469zm-16.376 9.099v-7.756l7.455 3.891-7.455 3.865z" fill="#E6EDFB"/></g><defs><clipPath id="a"><path fill="#fff" transform="translate(.152 .987)" d="M0 0h27.598v27.598H0z"/></clipPath></defs></svg>