<svg width="28" height="29" viewBox="0 0 28 29" fill="none" xmlns="http://www.w3.org/2000/svg">
<g clip-path="url(#clip0_188_322)">
<path d="M27.4747 9.2663C27.4747 9.2663 27.2052 7.36357 26.3751 6.52809C25.324 5.42849 24.149 5.4231 23.61 5.35841C19.7506 5.07812 13.9561 5.07812 13.9561 5.07812H13.9454C13.9454 5.07812 8.1509 5.07812 4.29152 5.35841C3.7525 5.4231 2.57744 5.42849 1.52635 6.52809C0.696265 7.36357 0.432145 9.2663 0.432145 9.2663C0.432145 9.2663 0.151855 11.5032 0.151855 13.7348V15.8262C0.151855 18.0577 0.426755 20.2946 0.426755 20.2946C0.426755 20.2946 0.696265 22.1974 1.52096 23.0329C2.57205 24.1325 3.95194 24.0947 4.56642 24.2133C6.7764 24.4235 13.9507 24.4882 13.9507 24.4882C13.9507 24.4882 19.7506 24.4774 23.61 24.2025C24.149 24.1378 25.324 24.1325 26.3751 23.0329C27.2052 22.1974 27.4747 20.2946 27.4747 20.2946C27.4747 20.2946 27.7496 18.0631 27.7496 15.8262V13.7348C27.7496 11.5032 27.4747 9.2663 27.4747 9.2663ZM11.0993 18.3649V10.6085L18.554 14.5002L11.0993 18.3649Z" fill="#E6EDFB"/>
</g>
<defs>
<clipPath id="clip0_188_322">
<rect width="27.5978" height="27.5978" fill="white" transform="translate(0.151855 0.987061)"/>
</clipPath>
</defs>
</svg>
