<svg width="166" height="38" viewBox="0 0 166 38" fill="none" xmlns="http://www.w3.org/2000/svg">
<path d="M17.1902 0.520771C11.8828 1.07713 7.02476 3.98362 4.00286 8.4057C0.23504 13.9117 -0.262236 20.9621 2.69273 26.9382C3.28563 28.1372 4.30887 29.7679 4.5097 29.8255C4.59576 29.8542 19.514 10.2666 19.6192 9.98844C19.6575 9.89252 19.0168 9.87333 16.4443 9.9213C12.5139 9.99803 11.4811 10.1515 10.3336 10.823C9.79803 11.1395 8.80348 12.2426 8.34446 13.0196C8.14363 13.365 7.92368 13.6527 7.86631 13.6527C7.80893 13.6527 7.60811 13.6048 7.41685 13.5568L7.08214 13.4609L7.82805 10.6119C8.2297 9.0388 8.57397 7.74383 8.57397 7.72464C8.57397 7.71505 12.8582 7.70546 18.0987 7.70546C23.3392 7.70546 27.6043 7.73424 27.5852 7.7726C27.5756 7.82057 25.816 10.1803 23.6931 13.0292C21.5605 15.8782 18.1848 20.4153 16.1765 23.1108L12.5235 28.0029L14.0153 27.9645C14.8377 27.9454 16.6738 27.9933 18.0891 28.0797C19.514 28.166 21.1493 28.2619 21.7231 28.2907C23.0236 28.3578 24.7928 28.2044 25.663 27.9358C26.0169 27.8207 26.6576 27.5617 27.0784 27.341C28.1303 26.7943 29.5552 25.3746 30.2341 24.1756L30.7123 23.341L31.047 23.3986C31.2287 23.4274 31.4104 23.4849 31.4582 23.5233C31.5634 23.6288 31.0948 24.9813 30.5593 26.1132C29.9759 27.3506 29.4691 28.1084 28.7136 28.8854C27.9868 29.6432 27.4513 30.0365 26.6002 30.4682C24.7163 31.4082 23.0715 31.4849 18.6151 30.8135C14.4361 30.19 13.7667 30.1228 11.7298 30.1132C9.16687 30.1036 7.56985 30.3626 6.02065 31.0245L5.58075 31.2164L6.00152 31.6576C7.23515 32.9334 9.24338 34.3818 11.0317 35.2835C14.5604 37.0581 18.9307 37.6049 22.8898 36.7703C32.7014 34.7176 39.0608 24.9525 37.0239 15.0628C35.1304 5.87331 26.5046 -0.448059 17.1902 0.520771Z" fill="#E6EDFB"/>
<path d="M136.756 8.03847C132.428 8.51102 129.002 10.659 127.37 13.9346C126.554 15.567 126.253 16.888 126.242 18.8319C126.231 23.7293 129.067 27.3486 133.9 28.6266C134.77 28.8629 135.253 28.9058 136.918 28.9488C139.076 29.0132 140.505 28.8414 142.341 28.3151L143.2 28.0681L143.233 26.2638C143.243 25.2758 143.233 24.4703 143.2 24.4703C143.179 24.4703 142.878 24.6421 142.556 24.8569C141.772 25.351 140.644 25.8235 139.624 26.092C138.625 26.3498 136.842 26.3605 135.844 26.1242C133.556 25.5872 131.666 23.7937 130.914 21.4632C130.313 19.573 130.334 17.5861 130.968 15.653C131.58 13.7735 132.729 12.4525 134.501 11.5719C135.715 10.9704 136.649 10.7986 138.367 10.863C139.968 10.9167 141.031 11.196 142.373 11.9155C142.814 12.1411 143.179 12.3344 143.211 12.3344C143.233 12.3344 143.254 11.5074 143.254 10.5086V8.68286L142.996 8.57546C141.847 8.14587 138.475 7.8559 136.756 8.03847Z" fill="#E6EDFB"/>
<path d="M55.0592 8.97361C54.9411 9.26359 54.5115 10.1979 54.1141 11.0679C53.706 11.9485 53.3945 12.6574 53.416 12.6574C53.4375 12.6574 53.7597 12.5177 54.1356 12.3566C55.9613 11.5297 57.5079 11.1753 59.8599 11.0464C61.7823 10.939 64.3169 10.9068 64.3169 10.9927C64.3169 11.0249 61.5997 14.9342 58.2919 19.6704C54.9733 24.4066 52.2454 28.3267 52.2239 28.3911C52.1917 28.4663 55.0807 28.477 60.8264 28.4448L69.4827 28.3911L70.4385 26.2002C70.9755 24.9866 71.4051 23.9985 71.4051 23.9878C71.4051 23.9663 70.9862 24.1704 70.4707 24.4389C69.3216 25.0081 67.9362 25.4591 66.5722 25.7062C65.176 25.9639 58.8718 26.082 59.0114 25.8565C59.0544 25.7706 61.7715 21.8506 65.0364 17.1358C68.3013 12.4211 70.9755 8.54402 70.9755 8.52254C70.9755 8.49033 67.4421 8.46885 63.1247 8.46885H55.2847L55.0592 8.97361Z" fill="#E6EDFB"/>
<path d="M74.122 8.75778C74.2724 8.92962 74.5086 9.29477 74.6483 9.59548C74.8953 10.1325 74.8953 10.1325 74.9597 16.63C75.0134 22.3328 75.0456 23.2028 75.2067 23.772C75.7759 25.7588 77.0325 27.2624 78.869 28.1645C81.5754 29.507 85.5813 29.4748 88.3629 28.1108C89.6195 27.4987 90.8653 26.2636 91.413 25.1144C92.1326 23.5894 92.1541 23.4068 92.2292 16.4689C92.2937 10.2613 92.2937 10.2399 92.5407 9.70288C92.6803 9.40217 92.9381 9.0048 93.1206 8.81148L93.4643 8.46781H90.5431H87.6219L87.7722 8.70408C87.8581 8.8437 88.0192 9.24107 88.1159 9.59548C88.2663 10.1432 88.3092 10.9702 88.3414 15.3627C88.4166 22.7302 88.2877 23.8257 87.2352 24.9963C85.3128 27.1335 80.8236 26.6717 79.6208 24.223C79.4811 23.9116 79.3093 23.3209 79.2449 22.9128C79.1053 21.9032 79.1053 10.9809 79.2449 10.0895C79.3093 9.71362 79.4597 9.21959 79.5671 8.99406C79.6852 8.76852 79.7819 8.55373 79.7819 8.52151C79.7819 8.48929 78.4394 8.46781 76.8069 8.46781H73.832L74.122 8.75778Z" fill="#E6EDFB"/>
<path d="M97.1913 8.86651C97.4061 9.10278 97.6746 9.53237 97.782 9.82235C97.9753 10.3271 97.9861 10.7674 97.9861 18.5108C97.9861 27.6289 98.0183 27.2637 97.2343 28.0155C97.0302 28.2195 96.8584 28.4021 96.8584 28.4343C96.8584 28.4773 98.2653 28.4988 99.9729 28.4988C101.691 28.4988 103.087 28.488 103.087 28.4666C103.087 28.4451 102.948 28.2518 102.765 28.037C102.078 27.1778 102.067 27.1134 102.035 23.3437C102.003 20.3903 102.024 19.9285 102.153 20.0681C102.239 20.154 103.302 21.4213 104.527 22.8819C105.751 24.3425 107.018 25.8353 107.34 26.1897C108.081 26.9845 109.069 27.7363 109.853 28.1121C110.423 28.3806 110.552 28.3914 112.732 28.4451C113.978 28.4773 114.998 28.4666 114.987 28.4343C114.966 28.3914 114.493 27.9511 113.924 27.4463C113.365 26.9523 112.324 25.9105 111.615 25.148C110.208 23.6337 106.696 19.5311 106.75 19.4881C106.771 19.4774 107.083 19.3485 107.437 19.2196C108.457 18.8545 109.574 18.1886 110.272 17.5335C111.464 16.438 112.077 14.7304 111.819 13.2376C111.432 11.0145 109.628 9.36054 106.922 8.76985C106.041 8.57654 105.429 8.54432 101.369 8.50136L96.8154 8.44766L97.1913 8.86651ZM104.795 11.0037C106.535 11.4011 107.448 12.3784 107.566 13.9894C107.652 15.0741 107.426 15.8044 106.782 16.5132C105.923 17.4691 104.226 18.1349 102.669 18.1349H102.013V14.419V10.6923L103.066 10.7674C103.635 10.8104 104.419 10.9071 104.795 11.0037Z" fill="#E6EDFB"/>
<path d="M117.148 8.84503C117.62 9.38201 117.782 9.73643 117.9 10.5204C118.061 11.4763 118.061 25.5131 117.9 26.3508C117.771 27.0597 117.524 27.6074 117.105 28.1014C116.955 28.2732 116.836 28.4343 116.836 28.4558C116.836 28.4773 118.243 28.4988 119.951 28.4988C121.669 28.4988 123.065 28.488 123.065 28.4773C123.065 28.4666 122.915 28.2947 122.743 28.1014C122.561 27.9081 122.314 27.4785 122.174 27.1563L121.938 26.5656V18.5108C121.938 9.50015 121.916 9.83308 122.7 8.90946L123.087 8.46914H119.951H116.815L117.148 8.84503Z" fill="#E6EDFB"/>
<path d="M147.015 8.86651C147.208 9.0813 147.466 9.47867 147.595 9.74717C147.82 10.2305 147.82 10.3701 147.852 18.1779C147.884 26.9415 147.884 26.9308 147.208 27.8651C147.025 28.1229 146.832 28.3377 146.778 28.3377C146.735 28.3377 146.692 28.3699 146.692 28.4129C146.692 28.4666 148.099 28.4988 149.807 28.4988C151.525 28.4988 152.921 28.488 152.921 28.4666C152.921 28.4451 152.771 28.2518 152.599 28.0262C152.417 27.8114 152.18 27.3604 152.062 27.0167C151.869 26.4582 151.847 26.136 151.847 22.9141V19.4237H156.315H160.772L160.74 23.043C160.708 26.5764 160.697 26.6838 160.461 27.2207C160.321 27.5322 160.063 27.9081 159.892 28.0799C159.72 28.241 159.58 28.4021 159.58 28.4343C159.58 28.4666 160.987 28.4988 162.695 28.4988C164.413 28.4988 165.809 28.4773 165.809 28.4558C165.809 28.4343 165.691 28.2732 165.541 28.1014C165.39 27.9188 165.154 27.5752 165.025 27.3281L164.789 26.8878V18.6719C164.789 9.47867 164.757 9.84382 165.551 8.90946L165.938 8.46914H162.748H159.559L159.902 8.86651C160.096 9.0813 160.353 9.47867 160.482 9.74717C160.697 10.209 160.708 10.456 160.74 13.592L160.772 16.9535H156.304H151.837L151.869 13.592C151.901 10.2949 151.901 10.2305 152.159 9.71495C152.299 9.42497 152.556 9.0276 152.739 8.83429L153.05 8.46914H149.861H146.671L147.015 8.86651Z" fill="#E6EDFB"/>
</svg>
