<svg width="166" height="38" fill="none" xmlns="http://www.w3.org/2000/svg"><path d="M17.19.52c-5.307.557-10.165 3.464-13.187 7.886a18.336 18.336 0 0 0-1.31 18.532c.593 1.2 1.616 2.83 1.817 2.888.086.028 15.004-19.56 15.11-19.838.037-.095-.603-.115-3.176-.067-3.93.077-4.963.23-6.11.902-.536.316-1.53 1.42-1.99 2.197-.2.345-.42.633-.478.633-.057 0-.258-.048-.45-.096l-.334-.096.746-2.85c.402-1.572.746-2.867.746-2.886 0-.01 4.284-.02 9.525-.02 5.24 0 9.505.03 9.486.068-.01.048-1.769 2.407-3.892 5.256-2.133 2.85-5.508 7.386-7.517 10.082l-3.652 4.892 1.491-.038c.823-.02 2.659.028 4.074.115 1.425.086 3.06.182 3.634.21 1.3.068 3.07-.086 3.94-.354.354-.115.995-.374 1.415-.595 1.052-.547 2.477-1.966 3.156-3.165l.478-.835.335.058c.182.028.363.086.411.124.105.106-.363 1.458-.899 2.59-.583 1.238-1.09 1.995-1.845 2.772-.727.758-1.263 1.151-2.114 1.583-1.884.94-3.529 1.017-7.985.346-4.179-.624-4.848-.691-6.885-.7-2.563-.01-4.16.249-5.71.91l-.44.192.422.442c1.233 1.275 3.241 2.724 5.03 3.625 3.528 1.775 7.899 2.322 11.858 1.487 9.811-2.052 16.17-11.818 14.134-21.707C35.13 5.873 26.504-.448 17.19.52zM136.756 8.038c-4.328.473-7.754 2.621-9.386 5.897-.816 1.632-1.117 2.953-1.128 4.897-.011 4.897 2.825 8.517 7.658 9.795.87.236 1.353.279 3.018.322 2.158.064 3.587-.108 5.423-.634l.859-.247.033-1.804c.01-.988 0-1.794-.033-1.794-.021 0-.322.172-.644.387-.784.494-1.912.966-2.932 1.235-.999.258-2.782.268-3.78.032-2.288-.537-4.178-2.33-4.93-4.66-.601-1.891-.58-3.878.054-5.811.612-1.88 1.761-3.2 3.533-4.081 1.214-.602 2.148-.773 3.866-.709 1.601.054 2.664.333 4.006 1.053.441.225.806.418.838.418.022 0 .043-.827.043-1.825V8.683l-.258-.108c-1.149-.43-4.521-.72-6.24-.537zM55.06 8.974c-.119.29-.549 1.224-.946 2.094-.408.88-.72 1.59-.698 1.59.022 0 .344-.14.72-.301 1.825-.827 3.372-1.182 5.724-1.31 1.922-.108 4.457-.14 4.457-.054 0 .032-2.717 3.941-6.025 8.677-3.319 4.737-6.047 8.657-6.068 8.721-.032.075 2.857.086 8.602.054l8.657-.054.956-2.19c.537-1.214.966-2.203.966-2.213 0-.022-.419.182-.934.45-1.15.57-2.535 1.021-3.899 1.268-1.396.258-7.7.376-7.56.15.042-.085 2.76-4.005 6.024-8.72 3.265-4.715 5.94-8.592 5.94-8.613 0-.033-3.534-.054-7.851-.054h-7.84l-.226.505zM74.122 8.758c.15.172.387.537.526.837.247.537.247.537.312 7.035.053 5.703.086 6.573.247 7.142.569 1.987 1.826 3.49 3.662 4.393 2.706 1.342 6.712 1.31 9.494-.054 1.257-.612 2.502-1.847 3.05-2.997.72-1.525.741-1.707.816-8.645.065-6.208.065-6.23.312-6.766.14-.3.397-.698.58-.892l.343-.343H87.622l.15.236c.086.14.247.537.344.891.15.548.193 1.375.225 5.768.076 7.367-.053 8.463-1.106 9.633-1.922 2.138-6.411 1.676-7.614-.773a6.261 6.261 0 0 1-.376-1.31c-.14-1.01-.14-11.932 0-12.824.064-.375.215-.87.322-1.095.118-.225.215-.44.215-.472 0-.033-1.343-.054-2.975-.054h-2.975l.29.29zM97.191 8.867c.215.236.484.665.591.955.193.505.204.945.204 8.689 0 9.118.032 8.753-.752 9.505-.204.204-.376.386-.376.418 0 .043 1.407.065 3.115.065 1.718 0 3.114-.011 3.114-.032 0-.022-.139-.215-.322-.43-.687-.86-.698-.924-.73-4.693-.032-2.954-.011-3.416.118-3.276.086.086 1.149 1.353 2.374 2.814 1.224 1.46 2.491 2.953 2.813 3.308.741.794 1.729 1.546 2.513 1.922.57.269.699.28 2.879.333 1.246.032 2.266.022 2.255-.01-.021-.044-.494-.484-1.063-.989-.559-.494-1.6-1.536-2.309-2.298-1.407-1.514-4.919-5.617-4.865-5.66.021-.01.333-.14.687-.268 1.02-.365 2.137-1.031 2.835-1.686 1.192-1.096 1.805-2.804 1.547-4.296-.387-2.223-2.191-3.877-4.897-4.468-.881-.193-1.493-.226-5.553-.269l-4.554-.053.376.419zm7.604 2.137c1.74.397 2.653 1.374 2.771 2.985.086 1.085-.14 1.815-.784 2.524-.859.956-2.556 1.622-4.113 1.622h-.656v-7.443l1.053.075c.569.043 1.353.14 1.729.237zM117.148 8.845c.472.537.634.891.752 1.675.161.956.161 14.993 0 15.83-.129.71-.376 1.257-.795 1.751-.15.172-.269.333-.269.355 0 .021 1.407.043 3.115.043 1.718 0 3.114-.011 3.114-.022 0-.01-.15-.182-.322-.376-.182-.193-.429-.622-.569-.945l-.236-.59V18.51c0-9.01-.022-8.678.762-9.602l.387-.44h-6.272l.333.376zM147.015 8.867c.193.214.451.612.58.88.225.483.225.623.257 8.43.032 8.765.032 8.754-.644 9.688-.183.258-.376.473-.43.473-.043 0-.086.032-.086.075 0 .054 1.407.086 3.115.086 1.718 0 3.114-.011 3.114-.032 0-.022-.15-.215-.322-.44-.182-.216-.419-.667-.537-1.01-.193-.559-.215-.881-.215-4.103v-3.49h8.925l-.032 3.619c-.032 3.533-.043 3.64-.279 4.178-.14.311-.398.687-.569.859-.172.161-.312.322-.312.354 0 .033 1.407.065 3.115.065 1.718 0 3.114-.022 3.114-.043 0-.022-.118-.183-.268-.355a5.33 5.33 0 0 1-.516-.773l-.236-.44v-8.216c0-9.193-.032-8.828.762-9.763l.387-.44h-6.379l.343.398c.194.214.451.612.58.88.215.462.226.709.258 3.845l.032 3.361H151.837l.032-3.361c.032-3.297.032-3.362.29-3.877.14-.29.397-.687.58-.88l.311-.366h-6.379l.344.398z" fill="#E6EDFB"/></svg>